<?xml version="1.0" encoding="UTF-8"?>
<svg id="Layer_2" xmlns="http://www.w3.org/2000/svg" xmlns:xlink="http://www.w3.org/1999/xlink" viewBox="0 0 204.95 66.11">
  <defs>
    <style>
      .cls-1 {
        fill: #002e3b;
      }

      .cls-2 {
        fill: #fff;
      }

      .cls-3 {
        fill: url(#linear-gradient);
      }

      .cls-4 {
        opacity: .5;
      }
    </style>
    <linearGradient id="linear-gradient" x1="102.48" y1="6.97" x2="102.48" y2="93.87" gradientUnits="userSpaceOnUse">
      <stop offset="0" stop-color="#207893"/>
      <stop offset="1" stop-color="#003445"/>
    </linearGradient>
  </defs>
  <g id="Camada_4">
    <g>
      <path class="cls-1" d="M10.86,5.71h183.24c5.99,0,10.86,4.87,10.86,10.86v38.68c0,5.99-4.87,10.86-10.86,10.86H10.86c-5.99,0-10.86-4.87-10.86-10.86V16.57C0,10.58,4.87,5.71,10.86,5.71Z"/>
      <rect class="cls-3" width="204.95" height="61.71" rx="11.86" ry="11.86"/>
      <g>
        <path class="cls-2" d="M51.4,30.37c0-6.22,3.9-9.92,8.71-9.92,2.38,0,4.28,1.14,5.48,2.41l-1.8,2.17c-.98-.98-2.12-1.65-3.61-1.65-3.09,0-5.32,2.62-5.32,6.89s2.05,6.97,5.24,6.97c1.69,0,2.99-.78,4.06-1.95l1.8,2.12c-1.54,1.79-3.53,2.77-5.99,2.77-4.78,0-8.57-3.5-8.57-9.79Z"/>
        <path class="cls-2" d="M67.93,32.68c0-4.76,3.23-7.5,6.79-7.5s6.79,2.75,6.79,7.5-3.23,7.48-6.79,7.48-6.79-2.75-6.79-7.48ZM78.07,32.68c0-2.86-1.26-4.77-3.35-4.77s-3.35,1.91-3.35,4.77,1.26,4.75,3.35,4.75,3.35-1.88,3.35-4.75Z"/>
        <path class="cls-2" d="M84.84,25.53h2.75l.26,1.93h.09c1.28-1.25,2.73-2.28,4.69-2.28,3.06,0,4.4,2.07,4.4,5.68v8.96h-3.35v-8.53c0-2.35-.67-3.23-2.22-3.23-1.26,0-2.08.62-3.26,1.78v9.98h-3.35v-14.29Z"/>
        <path class="cls-2" d="M100.19,32.68c0-4.76,3.36-7.5,7.17-7.5,1.82,0,3.14.7,4.18,1.61l-1.63,2.18c-.76-.66-1.48-1.05-2.37-1.05-2.3,0-3.9,1.91-3.9,4.77s1.57,4.75,3.79,4.75c1.12,0,2.14-.55,2.95-1.23l1.36,2.21c-1.34,1.19-3.04,1.76-4.67,1.76-3.9,0-6.89-2.75-6.89-7.48Z"/>
        <path class="cls-2" d="M114.57,36.14v-16.87h3.35v17.04c0,.83.37,1.12.72,1.12.15,0,.27,0,.52-.06l.42,2.5c-.41.16-.96.29-1.77.29-2.37,0-3.25-1.54-3.25-4.02Z"/>
        <path class="cls-2" d="M122.29,34.49v-8.96h3.35v8.53c0,2.35.67,3.23,2.22,3.23,1.26,0,2.08-.58,3.16-1.98v-9.78h3.35v14.29h-2.75l-.26-2.11h-.09c-1.26,1.49-2.64,2.45-4.6,2.45-3.06,0-4.4-2.07-4.4-5.68Z"/>
        <path class="cls-2" d="M138.24,21.13c0-1.13.88-1.9,2.07-1.9s2.07.77,2.07,1.9-.88,1.9-2.07,1.9-2.07-.79-2.07-1.9ZM138.63,25.53h3.35v14.29h-3.35v-14.29Z"/>
        <path class="cls-2" d="M146.25,25.53h2.75l.26,2.55h.09c1.02-1.86,2.53-2.9,4.06-2.9.73,0,1.19.09,1.62.29l-.58,2.91c-.5-.14-.87-.23-1.47-.23-1.14,0-2.51.78-3.37,2.96v8.71h-3.35v-14.29Z"/>
      </g>
      <g class="cls-4">
        <path class="cls-2" d="M190.54,5.71c4.3,0,7.8,3.5,7.8,7.8v34.67c0,4.3-3.5,7.8-7.8,7.8H14.41c-4.3,0-7.8-3.5-7.8-7.8V13.51c0-4.3,3.5-7.8,7.8-7.8h176.14M190.54,5.05H14.41c-4.67,0-8.46,3.79-8.46,8.46v34.67c0,4.67,3.79,8.46,8.46,8.46h176.14c4.67,0,8.46-3.79,8.46-8.46V13.51c0-4.67-3.79-8.46-8.46-8.46h0Z"/>
      </g>
    </g>
  </g>
</svg>