<?xml version="1.0" encoding="UTF-8"?>
<svg id="Layer_2" xmlns="http://www.w3.org/2000/svg" xmlns:xlink="http://www.w3.org/1999/xlink" viewBox="0 0 204.95 66.11">
  <defs>
    <style>
      .cls-1 {
        fill: #002e3b;
      }

      .cls-2 {
        fill: #fff;
      }

      .cls-3 {
        fill: url(#linear-gradient);
      }

      .cls-4 {
        opacity: .5;
      }
    </style>
    <linearGradient id="linear-gradient" x1="102.48" y1="6.97" x2="102.48" y2="93.87" gradientUnits="userSpaceOnUse">
      <stop offset="0" stop-color="#207893"/>
      <stop offset="1" stop-color="#003445"/>
    </linearGradient>
  </defs>
  <g id="Camada_4">
    <g>
      <g>
        <g>
          <path class="cls-1" d="M10.86,5.71h183.24c5.99,0,10.86,4.87,10.86,10.86v38.68c0,5.99-4.87,10.86-10.86,10.86H10.86c-5.99,0-10.86-4.87-10.86-10.86V16.57C0,10.58,4.87,5.71,10.86,5.71Z"/>
          <rect class="cls-3" y="0" width="204.95" height="61.71" rx="11.86" ry="11.86"/>
          <g>
            <path class="cls-2" d="M60.03,21.79h5.07c5.83,0,9.27,3.14,9.27,9.43s-3.44,9.59-9.1,9.59h-5.25v-19.02ZM64.88,38.08c3.83,0,6.03-2.18,6.03-6.85s-2.2-6.7-6.03-6.7h-1.48v13.55h1.48Z"/>
            <path class="cls-2" d="M76.98,33.68c0-4.76,3.23-7.5,6.79-7.5s6.79,2.75,6.79,7.5-3.23,7.48-6.79,7.48-6.79-2.75-6.79-7.48ZM87.12,33.68c0-2.86-1.26-4.77-3.35-4.77s-3.35,1.91-3.35,4.77,1.26,4.75,3.35,4.75,3.35-1.88,3.35-4.75Z"/>
            <path class="cls-2" d="M92.29,26.53h3.36l1.73,7.41c.28,1.38.49,2.72.74,4.12h.12c.28-1.4.56-2.77.91-4.12l1.87-7.41h3.04l1.91,7.41c.35,1.38.63,2.72.94,4.12h.12c.28-1.4.49-2.73.77-4.12l1.71-7.41h3.13l-3.62,14.29h-3.98l-1.68-6.67c-.3-1.34-.56-2.65-.86-4.15h-.12c-.28,1.49-.52,2.83-.85,4.17l-1.62,6.64h-3.86l-3.77-14.29Z"/>
            <path class="cls-2" d="M115.48,26.53h2.75l.26,1.93h.09c1.28-1.25,2.73-2.28,4.69-2.28,3.06,0,4.4,2.07,4.4,5.68v8.96h-3.35v-8.53c0-2.35-.67-3.23-2.22-3.23-1.26,0-2.08.62-3.26,1.78v9.98h-3.35v-14.29Z"/>
            <path class="cls-2" d="M131.77,37.14v-16.87h3.35v17.04c0,.83.37,1.12.72,1.12.15,0,.27,0,.52-.06l.42,2.5c-.41.16-.96.29-1.77.29-2.37,0-3.25-1.54-3.25-4.03Z"/>
            <path class="cls-2" d="M138.71,33.68c0-4.76,3.23-7.5,6.79-7.5s6.79,2.75,6.79,7.5-3.23,7.48-6.79,7.48-6.79-2.75-6.79-7.48ZM148.85,33.68c0-2.86-1.26-4.77-3.35-4.77s-3.35,1.91-3.35,4.77,1.26,4.75,3.35,4.75,3.35-1.88,3.35-4.75Z"/>
            <path class="cls-2" d="M154.5,36.97c0-3.06,2.54-4.65,8.4-5.28-.05-1.54-.66-2.82-2.6-2.82-1.42,0-2.76.64-4.01,1.41l-1.23-2.23c1.57-.99,3.6-1.87,5.86-1.87,3.57,0,5.33,2.2,5.33,6.18v8.46h-2.75l-.26-1.58h-.09c-1.28,1.09-2.75,1.93-4.43,1.93-2.5,0-4.22-1.7-4.22-4.19ZM162.9,36.99v-3.21c-3.88.49-5.17,1.5-5.17,2.94,0,1.26.86,1.81,2.06,1.81s2.05-.57,3.11-1.55Z"/>
            <path class="cls-2" d="M169.41,33.68c0-4.65,2.92-7.5,6.05-7.5,1.62,0,2.64.61,3.75,1.57l-.13-2.3v-5.18h3.35v20.54h-2.75l-.26-1.55h-.09c-1.06,1.06-2.53,1.9-4.06,1.9-3.56,0-5.86-2.77-5.86-7.48ZM179.08,36.79v-6.65c-.98-.87-1.94-1.19-2.91-1.19-1.82,0-3.32,1.72-3.32,4.7s1.19,4.75,3.25,4.75c1.11,0,2.04-.49,2.98-1.61Z"/>
          </g>
          <g class="cls-4">
            <path class="cls-2" d="M190.54,5.71c4.3,0,7.8,3.5,7.8,7.8v34.67c0,4.3-3.5,7.8-7.8,7.8H14.41c-4.3,0-7.8-3.5-7.8-7.8V13.51c0-4.3,3.5-7.8,7.8-7.8h176.14M190.54,5.05H14.41c-4.67,0-8.46,3.79-8.46,8.46v34.67c0,4.67,3.79,8.46,8.46,8.46h176.14c4.67,0,8.46-3.79,8.46-8.46V13.51c0-4.67-3.79-8.46-8.46-8.46h0Z"/>
          </g>
        </g>
        <g>
          <path class="cls-2" d="M30.52,32.34v-.55c0-4.96,0-9.91,0-14.87,0-.25.01-.51.08-.75.2-.77.96-1.25,1.79-1.16.76.08,1.36.73,1.41,1.51.01.2,0,.4,0,.6,0,4.9,0,9.81,0,14.71v.54c.17-.17.27-.26.37-.36,1.64-1.64,3.29-3.29,4.93-4.93.44-.45.96-.68,1.59-.56.63.13,1.06.51,1.25,1.12.2.63.05,1.19-.41,1.66-1.1,1.11-2.21,2.21-3.31,3.32-1.61,1.62-3.22,3.24-4.84,4.85-.71.71-1.71.71-2.42,0-2.67-2.68-5.34-5.36-8.01-8.03-.47-.47-.73-.99-.58-1.66.28-1.26,1.79-1.72,2.74-.83.61.58,1.19,1.19,1.79,1.78,1.1,1.1,2.19,2.19,3.29,3.29.09.09.19.17.35.32Z"/>
          <path class="cls-2" d="M32.14,46.21c-3.26,0-6.52,0-9.78,0-2.46,0-4.47-1.68-4.88-4.09-.11-.65-.08-1.33-.09-2,0-.77-.02-1.55.03-2.32.05-.77.69-1.37,1.43-1.44.79-.08,1.51.38,1.73,1.13.07.23.08.47.08.71,0,.96,0,1.92,0,2.89,0,1.18.67,1.84,1.84,1.84,6.44,0,12.88,0,19.32,0,1.16,0,1.82-.66,1.82-1.81,0-1.04-.01-2.09,0-3.13.01-.86.66-1.55,1.47-1.63.83-.07,1.69.44,1.74,1.26.09,1.72.32,3.48-.19,5.18-.63,2.08-2.52,3.41-4.72,3.42-3.27,0-6.55,0-9.82,0Z"/>
        </g>
      </g>
      <g class="cls-4">
        <path class="cls-2" d="M193.09,0H11.86C5.31,0,0,5.31,0,11.86v43.4c0,6,4.86,10.86,10.86,10.86h183.24c6,0,10.86-4.86,10.86-10.86V11.86c0-6.55-5.31-11.86-11.86-11.86Z"/>
      </g>
    </g>
  </g>
</svg>