<?xml version="1.0" encoding="UTF-8"?>
<svg xmlns="http://www.w3.org/2000/svg" xmlns:xlink="http://www.w3.org/1999/xlink" viewBox="0 0 77.97 84.65">
  <defs>
    <style>
      .cls-1 {
        fill: #4d4d4d;
      }

      .cls-2, .cls-3 {
        fill: #fff;
      }

      .cls-4 {
        fill: #8b99ad;
      }

      .cls-5 {
        fill: #207893;
        mix-blend-mode: screen;
        opacity: .8;
      }

      .cls-6 {
        isolation: isolate;
      }

      .cls-3 {
        stroke-width: .87px;
      }

      .cls-3, .cls-7 {
        stroke: #fff;
        stroke-miterlimit: 10;
      }

      .cls-8 {
        opacity: .37;
      }

      .cls-9 {
        fill: #b6b6b6;
      }

      .cls-7 {
        fill: none;
        stroke-width: .78px;
      }

      .cls-10 {
        fill: url(#linear-gradient);
      }

      .cls-11 {
        opacity: .7;
      }
    </style>
    <linearGradient id="linear-gradient" x1="38.99" y1="71.49" x2="38.99" y2="1.52" gradientUnits="userSpaceOnUse">
      <stop offset="0" stop-color="#c1c8d2"/>
      <stop offset="1" stop-color="#cbd4e1"/>
    </linearGradient>
  </defs>
  <g class="cls-6">
    <g id="Layer_2">
      <g id="Camada_4">
        <g>
          <rect class="cls-4" y="8.34" width="77.97" height="76.3" rx="15.42" ry="15.42"/>
          <rect class="cls-9" y="0" width="77.97" height="76.3" rx="15.42" ry="15.42"/>
          <rect class="cls-10" y="0" width="77.97" height="76.3" rx="15.42" ry="15.42"/>
          <g class="cls-8">
            <path class="cls-2" d="M74.01,40.34v-21.72c0-8.14-6.52-14.75-14.56-14.75H16.53c-6.95,0-12.58,5.7-12.58,12.74v23.72c0,.3.24.54.53.54h68.99c.29,0,.53-.24.53-.54Z"/>
          </g>
          <g>
            <rect class="cls-3" x="16.28" y="37.01" width="46.53" height="7.79" transform="translate(-17.34 39.94) rotate(-45)"/>
            <rect class="cls-3" x="16.28" y="37.01" width="46.53" height="7.79" transform="translate(38.58 97.78) rotate(-135)"/>
          </g>
          <g>
            <rect class="cls-1" x="16.28" y="35.27" width="46.53" height="7.79" transform="translate(-16.11 39.43) rotate(-45)"/>
            <rect class="cls-1" x="16.28" y="35.27" width="46.53" height="7.79" transform="translate(39.81 94.81) rotate(-135)"/>
          </g>
          <g class="cls-11">
            <rect class="cls-7" x="3.96" y="3.87" width="70.05" height="68.55" rx="13.86" ry="13.86"/>
          </g>
        </g>
        <path class="cls-5" d="M62.55,0H15.42C6.91,0,0,6.91,0,15.42v53.8C0,77.74,6.91,84.65,15.42,84.65h47.12c8.52,0,15.42-6.91,15.42-15.42V15.42c0-8.52-6.91-15.42-15.42-15.42Z"/>
      </g>
    </g>
  </g>
</svg>