<?xml version="1.0" encoding="UTF-8"?>
<svg id="Layer_2" xmlns="http://www.w3.org/2000/svg" xmlns:xlink="http://www.w3.org/1999/xlink" viewBox="0 0 77.97 84.65">
  <defs>
    <style>
      .cls-1 {
        fill: #4d4d4d;
      }

      .cls-2, .cls-3 {
        fill: #fff;
      }

      .cls-4 {
        fill: #8b99ad;
      }

      .cls-3 {
        stroke-width: .87px;
      }

      .cls-3, .cls-5 {
        stroke: #fff;
        stroke-miterlimit: 10;
      }

      .cls-6 {
        opacity: .37;
      }

      .cls-7 {
        fill: #b6b6b6;
      }

      .cls-5 {
        fill: none;
        stroke-width: .78px;
      }

      .cls-8 {
        fill: url(#linear-gradient);
      }

      .cls-9 {
        opacity: .7;
      }
    </style>
    <linearGradient id="linear-gradient" x1="38.99" y1="71.49" x2="38.99" y2="1.52" gradientUnits="userSpaceOnUse">
      <stop offset="0" stop-color="#c1c8d2"/>
      <stop offset="1" stop-color="#cbd4e1"/>
    </linearGradient>
  </defs>
  <g id="Camada_4">
    <g>
      <rect class="cls-4" y="8.34" width="77.97" height="76.3" rx="15.42" ry="15.42"/>
      <rect class="cls-7" width="77.97" height="76.3" rx="15.42" ry="15.42"/>
      <rect class="cls-8" width="77.97" height="76.3" rx="15.42" ry="15.42"/>
      <g class="cls-6">
        <path class="cls-2" d="M74.01,40.34v-21.72c0-8.14-6.52-14.75-14.56-14.75H16.53c-6.95,0-12.58,5.7-12.58,12.74v23.72c0,.3.24.54.53.54h68.99c.29,0,.53-.24.53-.54Z"/>
      </g>
      <g>
        <rect class="cls-3" x="16.28" y="37.01" width="46.53" height="7.79" transform="translate(-17.34 39.94) rotate(-45)"/>
        <rect class="cls-3" x="16.28" y="37.01" width="46.53" height="7.79" transform="translate(38.58 97.78) rotate(-135)"/>
      </g>
      <g>
        <rect class="cls-1" x="16.28" y="35.27" width="46.53" height="7.79" transform="translate(-16.11 39.43) rotate(-45)"/>
        <rect class="cls-1" x="16.28" y="35.27" width="46.53" height="7.79" transform="translate(39.81 94.81) rotate(-135)"/>
      </g>
      <g class="cls-9">
        <rect class="cls-5" x="3.96" y="3.87" width="70.05" height="68.55" rx="13.86" ry="13.86"/>
      </g>
    </g>
  </g>
</svg>