<?xml version="1.0" encoding="UTF-8"?>
<svg id="Layer_2" xmlns="http://www.w3.org/2000/svg" viewBox="0 0 204.95 66.11">
  <defs>
    <style>
      .cls-1 {
        fill: #fff;
      }

      .cls-2 {
        fill: #666;
      }

      .cls-3 {
        fill: #999;
      }

      .cls-4 {
        fill: #ccc;
      }

      .cls-5 {
        opacity: .5;
      }
    </style>
  </defs>
  <g id="Camada_4">
    <g>
      <path class="cls-2" d="M10.86,5.71h183.24c5.99,0,10.86,4.87,10.86,10.86v38.68c0,5.99-4.87,10.86-10.86,10.86H10.86c-5.99,0-10.86-4.87-10.86-10.86V16.57C0,10.58,4.87,5.71,10.86,5.71Z"/>
      <rect class="cls-3" x="0" width="204.95" height="61.71" rx="11.86" ry="11.86"/>
      <g>
        <path class="cls-4" d="M52.52,20.79h5.99c4.22,0,7.35,1.47,7.35,5.86s-3.14,6.17-7.24,6.17h-2.73v6.99h-3.37v-19.02ZM58.35,30.12c2.84,0,4.19-1.13,4.19-3.47s-1.48-3.16-4.3-3.16h-2.34v6.63h2.46Z"/>
        <path class="cls-4" d="M69.16,25.53h2.75l.26,2.55h.09c1.02-1.86,2.53-2.9,4.06-2.9.73,0,1.19.09,1.62.29l-.58,2.91c-.5-.14-.87-.23-1.47-.23-1.14,0-2.51.78-3.37,2.96v8.71h-3.35v-14.29Z"/>
        <path class="cls-4" d="M78.78,32.68c0-4.76,3.23-7.5,6.79-7.5s6.79,2.75,6.79,7.5-3.23,7.48-6.79,7.48-6.79-2.75-6.79-7.48ZM88.92,32.68c0-2.86-1.26-4.77-3.35-4.77s-3.35,1.91-3.35,4.77,1.26,4.75,3.35,4.75,3.35-1.88,3.35-4.75ZM83.85,21.5l4.29-5.07,2.3,2.22-4.92,4.5-1.67-1.65Z"/>
        <path class="cls-4" d="M97.85,32.37l-4.22-6.84h3.61l1.58,2.71c.41.79.87,1.62,1.3,2.41h.12c.37-.79.76-1.62,1.13-2.41l1.35-2.71h3.48l-4.22,7.21,4.53,7.07h-3.61l-1.75-2.83c-.47-.84-.95-1.71-1.44-2.52h-.12c-.42.81-.84,1.67-1.27,2.52l-1.51,2.83h-3.48l4.53-7.45Z"/>
        <path class="cls-4" d="M108.66,21.13c0-1.13.88-1.9,2.07-1.9s2.07.77,2.07,1.9-.88,1.9-2.07,1.9-2.07-.79-2.07-1.9ZM109.04,25.53h3.35v14.29h-3.35v-14.29Z"/>
        <path class="cls-4" d="M116.66,25.53h2.75l.26,1.95h.09c1.21-1.26,2.59-2.3,4.39-2.3,2.09,0,3.29.95,3.94,2.56,1.37-1.45,2.78-2.56,4.6-2.56,3.01,0,4.41,2.07,4.41,5.68v8.96h-3.35v-8.53c0-2.35-.7-3.23-2.2-3.23-.91,0-1.88.58-2.99,1.78v9.98h-3.35v-8.53c0-2.35-.7-3.23-2.2-3.23-.88,0-1.88.58-2.99,1.78v9.98h-3.35v-14.29Z"/>
        <path class="cls-4" d="M140.24,32.68c0-4.76,3.23-7.5,6.79-7.5s6.79,2.75,6.79,7.5-3.23,7.48-6.79,7.48-6.79-2.75-6.79-7.48ZM150.39,32.68c0-2.86-1.26-4.77-3.35-4.77s-3.35,1.91-3.35,4.77,1.26,4.75,3.35,4.75,3.35-1.88,3.35-4.75Z"/>
      </g>
      <g class="cls-5">
        <path class="cls-1" d="M190.54,5.71c4.3,0,7.8,3.5,7.8,7.8v34.67c0,4.3-3.5,7.8-7.8,7.8H14.41c-4.3,0-7.8-3.5-7.8-7.8V13.51c0-4.3,3.5-7.8,7.8-7.8h176.14M190.54,5.05H14.41c-4.67,0-8.46,3.79-8.46,8.46v34.67c0,4.67,3.79,8.46,8.46,8.46h176.14c4.67,0,8.46-3.79,8.46-8.46V13.51c0-4.67-3.79-8.46-8.46-8.46h0Z"/>
      </g>
    </g>
  </g>
</svg>