<?xml version="1.0" encoding="UTF-8"?>
<svg id="Layer_2" xmlns="http://www.w3.org/2000/svg" xmlns:xlink="http://www.w3.org/1999/xlink" viewBox="0 0 204.95 66.11">
  <defs>
    <style>
      .cls-1 {
        fill: #002e3b;
      }

      .cls-2 {
        fill: #fff;
      }

      .cls-3 {
        fill: url(#linear-gradient);
      }

      .cls-4 {
        opacity: .5;
      }
    </style>
    <linearGradient id="linear-gradient" x1="102.48" y1="6.97" x2="102.48" y2="93.87" gradientUnits="userSpaceOnUse">
      <stop offset="0" stop-color="#207893"/>
      <stop offset="1" stop-color="#003445"/>
    </linearGradient>
  </defs>
  <g id="Camada_4">
    <g>
      <g>
        <path class="cls-1" d="M10.86,5.71h183.24c5.99,0,10.86,4.87,10.86,10.86v38.68c0,5.99-4.87,10.86-10.86,10.86H10.86c-5.99,0-10.86-4.87-10.86-10.86V16.57C0,10.58,4.87,5.71,10.86,5.71Z"/>
        <rect class="cls-3" y="0" width="204.95" height="61.71" rx="11.86" ry="11.86"/>
        <g>
          <path class="cls-2" d="M59.14,20.79h6.41c3.96,0,7,1.4,7,5.64s-3.05,5.94-7,5.94h-3.04v7.43h-3.37v-19.02ZM65.2,29.68c2.61,0,4.03-1.08,4.03-3.25s-1.42-2.94-4.03-2.94h-2.69v6.19h2.69ZM64.91,31.48l2.44-2.01,5.94,10.35h-3.79l-4.59-8.33Z"/>
          <path class="cls-2" d="M74.84,32.68c0-4.64,3.22-7.5,6.58-7.5,3.86,0,5.9,2.79,5.9,6.78,0,.64-.07,1.28-.15,1.63h-9.07c.28,2.54,1.91,3.98,4.21,3.98,1.22,0,2.27-.38,3.32-1.04l1.14,2.08c-1.36.92-3.08,1.55-4.9,1.55-3.94,0-7.04-2.77-7.04-7.48ZM84.42,31.31c0-2.2-.98-3.54-2.93-3.54-1.66,0-3.13,1.24-3.42,3.54h6.35Z"/>
          <path class="cls-2" d="M90.53,25.53h2.75l.26,1.52h.09c1.2-1.04,2.73-1.87,4.3-1.87,3.57,0,5.62,2.86,5.62,7.27,0,4.89-2.92,7.71-6.1,7.71-1.27,0-2.51-.57-3.68-1.57l.1,2.37v4.5h-3.35v-19.94ZM100.1,32.48c0-2.85-.93-4.54-3.11-4.54-1.04,0-2.01.52-3.12,1.61v6.65c1.02.87,2.04,1.19,2.86,1.19,1.91,0,3.36-1.67,3.36-4.91Z"/>
          <path class="cls-2" d="M105.99,32.68c0-4.64,3.22-7.5,6.58-7.5,3.86,0,5.9,2.79,5.9,6.78,0,.64-.07,1.28-.15,1.63h-9.07c.28,2.54,1.91,3.98,4.21,3.98,1.22,0,2.27-.38,3.32-1.04l1.14,2.08c-1.36.92-3.08,1.55-4.9,1.55-3.94,0-7.04-2.77-7.04-7.48ZM115.58,31.31c0-2.2-.98-3.54-2.93-3.54-1.66,0-3.13,1.24-3.42,3.54h6.35Z"/>
          <path class="cls-2" d="M121.89,35v-6.81h-2.04v-2.51l2.21-.15.4-3.9h2.78v3.9h3.64v2.66h-3.64v6.8c0,1.68.65,2.51,2.02,2.51.49,0,1.07-.16,1.49-.33l.57,2.47c-.78.26-1.77.52-2.92.52-3.29,0-4.51-2.08-4.51-5.17Z"/>
          <path class="cls-2" d="M131.51,21.13c0-1.13.88-1.9,2.07-1.9s2.07.77,2.07,1.9-.88,1.9-2.07,1.9-2.07-.79-2.07-1.9ZM131.89,25.53h3.35v14.29h-3.35v-14.29Z"/>
          <path class="cls-2" d="M139.51,25.53h2.75l.26,2.55h.09c1.02-1.86,2.53-2.9,4.06-2.9.73,0,1.19.09,1.62.29l-.58,2.91c-.5-.14-.87-.23-1.47-.23-1.14,0-2.51.78-3.37,2.96v8.71h-3.35v-14.29Z"/>
        </g>
        <g class="cls-4">
          <path class="cls-2" d="M190.54,5.71c4.3,0,7.8,3.5,7.8,7.8v34.67c0,4.3-3.5,7.8-7.8,7.8H14.41c-4.3,0-7.8-3.5-7.8-7.8V13.51c0-4.3,3.5-7.8,7.8-7.8h176.14M190.54,5.05H14.41c-4.67,0-8.46,3.79-8.46,8.46v34.67c0,4.67,3.79,8.46,8.46,8.46h176.14c4.67,0,8.46-3.79,8.46-8.46V13.51c0-4.67-3.79-8.46-8.46-8.46h0Z"/>
        </g>
      </g>
      <g class="cls-4">
        <path class="cls-2" d="M193.09,0H11.86C5.31,0,0,5.31,0,11.86v43.4C0,61.25,4.86,66.11,10.86,66.11h183.24c6,0,10.86-4.86,10.86-10.86V11.86c0-6.55-5.31-11.86-11.86-11.86Z"/>
      </g>
    </g>
  </g>
</svg>