<?xml version="1.0" encoding="UTF-8"?>
<svg id="Layer_2" xmlns="http://www.w3.org/2000/svg" xmlns:xlink="http://www.w3.org/1999/xlink" viewBox="0 0 204.95 66.11">
  <defs>
    <style>
      .cls-1 {
        fill: #002e3b;
      }

      .cls-2 {
        fill: #fff;
      }

      .cls-3 {
        fill: url(#linear-gradient);
      }

      .cls-4 {
        opacity: .5;
      }
    </style>
    <linearGradient id="linear-gradient" x1="102.48" y1="6.97" x2="102.48" y2="93.87" gradientUnits="userSpaceOnUse">
      <stop offset="0" stop-color="#207893"/>
      <stop offset="1" stop-color="#003445"/>
    </linearGradient>
  </defs>
  <g id="Camada_4">
    <g>
      <path class="cls-1" d="M10.86,5.71h183.24c5.99,0,10.86,4.87,10.86,10.86v38.68c0,5.99-4.87,10.86-10.86,10.86H10.86c-5.99,0-10.86-4.87-10.86-10.86V16.57C0,10.58,4.87,5.71,10.86,5.71Z"/>
      <rect class="cls-3" width="204.95" height="61.71" rx="11.86" ry="11.86"/>
      <g>
        <path class="cls-2" d="M65.11,20.79h3.57l2.68,9.56c.62,2.16,1.04,4.03,1.67,6.19h.12c.64-2.16,1.08-4.03,1.68-6.19l2.64-9.56h3.44l-5.89,19.02h-4l-5.91-19.02Z"/>
        <path class="cls-2" d="M81.5,32.68c0-4.76,3.23-7.5,6.79-7.5s6.79,2.75,6.79,7.5-3.23,7.48-6.79,7.48-6.79-2.75-6.79-7.48ZM91.64,32.68c0-2.86-1.26-4.77-3.35-4.77s-3.35,1.91-3.35,4.77,1.26,4.75,3.35,4.75,3.35-1.88,3.35-4.75Z"/>
        <path class="cls-2" d="M98.24,36.14v-16.87h3.35v17.04c0,.83.37,1.12.72,1.12.15,0,.27,0,.52-.06l.42,2.5c-.41.16-.96.29-1.77.29-2.37,0-3.25-1.54-3.25-4.02Z"/>
        <path class="cls-2" d="M106.62,35v-6.81h-2.04v-2.51l2.21-.15.4-3.9h2.78v3.9h3.64v2.66h-3.64v6.8c0,1.68.65,2.51,2.02,2.51.49,0,1.07-.16,1.49-.33l.57,2.47c-.78.26-1.77.52-2.92.52-3.29,0-4.51-2.08-4.51-5.17Z"/>
        <path class="cls-2" d="M115.24,35.97c0-3.06,2.54-4.65,8.4-5.28-.05-1.54-.66-2.82-2.59-2.82-1.42,0-2.76.64-4.01,1.41l-1.23-2.23c1.57-.99,3.59-1.87,5.86-1.87,3.57,0,5.33,2.2,5.33,6.18v8.46h-2.75l-.26-1.58h-.09c-1.28,1.09-2.75,1.93-4.43,1.93-2.5,0-4.22-1.7-4.22-4.19ZM123.64,35.99v-3.21c-3.87.49-5.17,1.5-5.17,2.94,0,1.26.86,1.81,2.06,1.81s2.05-.57,3.11-1.55Z"/>
        <path class="cls-2" d="M131.02,25.53h2.75l.26,2.55h.09c1.02-1.86,2.53-2.9,4.06-2.9.73,0,1.19.09,1.62.29l-.58,2.91c-.5-.14-.87-.23-1.47-.23-1.14,0-2.51.78-3.37,2.96v8.71h-3.35v-14.29Z"/>
      </g>
      <g class="cls-4">
        <path class="cls-2" d="M190.54,5.71c4.3,0,7.8,3.5,7.8,7.8v34.67c0,4.3-3.5,7.8-7.8,7.8H14.41c-4.3,0-7.8-3.5-7.8-7.8V13.51c0-4.3,3.5-7.8,7.8-7.8h176.14M190.54,5.05H14.41c-4.67,0-8.46,3.79-8.46,8.46v34.67c0,4.67,3.79,8.46,8.46,8.46h176.14c4.67,0,8.46-3.79,8.46-8.46V13.51c0-4.67-3.79-8.46-8.46-8.46h0Z"/>
      </g>
    </g>
  </g>
</svg>