<?xml version="1.0" encoding="UTF-8"?>
<svg id="Layer_2" xmlns="http://www.w3.org/2000/svg" viewBox="0 0 2855.98 2">
  <defs>
    <style>
      .cls-1 {
        fill: #ccc;
      }
    </style>
  </defs>
  <g id="Camada_4">
    <g>
      <rect class="cls-1" x="2849.98" width="6" height="2"/>
      <path class="cls-1" d="M2841.99,2h-11.98V0h11.98v2ZM2822.01,2h-11.98V0h11.98v2ZM2802.04,2h-11.98V0h11.98v2ZM2782.07,2h-11.98V0h11.98v2ZM2762.1,2h-11.98V0h11.98v2ZM2742.13,2h-11.98V0h11.98v2ZM2722.16,2h-11.98V0h11.98v2ZM2702.18,2h-11.98V0h11.98v2ZM2682.21,2h-11.98V0h11.98v2ZM2662.24,2h-11.98V0h11.98v2ZM2642.27,2h-11.98V0h11.98v2ZM2622.3,2h-11.98V0h11.98v2ZM2602.33,2h-11.98V0h11.98v2ZM2582.35,2h-11.98V0h11.98v2ZM2562.38,2h-11.98V0h11.98v2ZM2542.41,2h-11.98V0h11.98v2ZM2522.44,2h-11.98V0h11.98v2ZM2502.47,2h-11.98V0h11.98v2ZM2482.5,2h-11.98V0h11.98v2ZM2462.52,2h-11.98V0h11.98v2ZM2442.55,2h-11.98V0h11.98v2ZM2422.58,2h-11.98V0h11.98v2ZM2402.61,2h-11.98V0h11.98v2ZM2382.64,2h-11.98V0h11.98v2ZM2362.66,2h-11.98V0h11.98v2ZM2342.69,2h-11.98V0h11.98v2ZM2322.72,2h-11.98V0h11.98v2ZM2302.75,2h-11.98V0h11.98v2ZM2282.78,2h-11.98V0h11.98v2ZM2262.81,2h-11.98V0h11.98v2ZM2242.83,2h-11.98V0h11.98v2ZM2222.86,2h-11.98V0h11.98v2ZM2202.89,2h-11.98V0h11.98v2ZM2182.92,2h-11.98V0h11.98v2ZM2162.95,2h-11.98V0h11.98v2ZM2142.98,2h-11.98V0h11.98v2ZM2123,2h-11.98V0h11.98v2ZM2103.03,2h-11.98V0h11.98v2ZM2083.06,2h-11.98V0h11.98v2ZM2063.09,2h-11.98V0h11.98v2ZM2043.12,2h-11.98V0h11.98v2ZM2023.15,2h-11.98V0h11.98v2ZM2003.17,2h-11.98V0h11.98v2ZM1983.2,2h-11.98V0h11.98v2ZM1963.23,2h-11.98V0h11.98v2ZM1943.26,2h-11.98V0h11.98v2ZM1923.29,2h-11.98V0h11.98v2ZM1903.31,2h-11.98V0h11.98v2ZM1883.34,2h-11.98V0h11.98v2ZM1863.37,2h-11.98V0h11.98v2ZM1843.4,2h-11.98V0h11.98v2ZM1823.43,2h-11.98V0h11.98v2ZM1803.46,2h-11.98V0h11.98v2ZM1783.48,2h-11.98V0h11.98v2ZM1763.51,2h-11.98V0h11.98v2ZM1743.54,2h-11.98V0h11.98v2ZM1723.57,2h-11.98V0h11.98v2ZM1703.6,2h-11.98V0h11.98v2ZM1683.63,2h-11.98V0h11.98v2ZM1663.65,2h-11.98V0h11.98v2ZM1643.68,2h-11.98V0h11.98v2ZM1623.71,2h-11.98V0h11.98v2ZM1603.74,2h-11.98V0h11.98v2ZM1583.77,2h-11.98V0h11.98v2ZM1563.8,2h-11.98V0h11.98v2ZM1543.82,2h-11.98V0h11.98v2ZM1523.85,2h-11.98V0h11.98v2ZM1503.88,2h-11.98V0h11.98v2ZM1483.91,2h-11.98V0h11.98v2ZM1463.94,2h-11.98V0h11.98v2ZM1443.97,2h-11.98V0h11.98v2ZM1423.99,2h-11.98V0h11.98v2ZM1404.02,2h-11.98V0h11.98v2ZM1384.05,2h-11.98V0h11.98v2ZM1364.08,2h-11.98V0h11.98v2ZM1344.11,2h-11.98V0h11.98v2ZM1324.14,2h-11.98V0h11.98v2ZM1304.16,2h-11.98V0h11.98v2ZM1284.19,2h-11.98V0h11.98v2ZM1264.22,2h-11.98V0h11.98v2ZM1244.25,2h-11.98V0h11.98v2ZM1224.28,2h-11.98V0h11.98v2ZM1204.31,2h-11.98V0h11.98v2ZM1184.33,2h-11.98V0h11.98v2ZM1164.36,2h-11.98V0h11.98v2ZM1144.39,2h-11.98V0h11.98v2ZM1124.42,2h-11.98V0h11.98v2ZM1104.45,2h-11.98V0h11.98v2ZM1084.48,2h-11.98V0h11.98v2ZM1064.5,2h-11.98V0h11.98v2ZM1044.53,2h-11.98V0h11.98v2ZM1024.56,2h-11.98V0h11.98v2ZM1004.59,2h-11.98V0h11.98v2ZM984.62,2h-11.98V0h11.98v2ZM964.65,2h-11.98V0h11.98v2ZM944.67,2h-11.98V0h11.98v2ZM924.7,2h-11.98V0h11.98v2ZM904.73,2h-11.98V0h11.98v2ZM884.76,2h-11.98V0h11.98v2ZM864.79,2h-11.98V0h11.98v2ZM844.82,2h-11.98V0h11.98v2ZM824.84,2h-11.98V0h11.98v2ZM804.87,2h-11.98V0h11.98v2ZM784.9,2h-11.98V0h11.98v2ZM764.93,2h-11.98V0h11.98v2ZM744.96,2h-11.98V0h11.98v2ZM724.98,2h-11.98V0h11.98v2ZM705.01,2h-11.98V0h11.98v2ZM685.04,2h-11.98V0h11.98v2ZM665.07,2h-11.98V0h11.98v2ZM645.1,2h-11.98V0h11.98v2ZM625.12,2h-11.98V0h11.98v2ZM605.15,2h-11.98V0h11.98v2ZM585.18,2h-11.98V0h11.98v2ZM565.21,2h-11.98V0h11.98v2ZM545.24,2h-11.98V0h11.98v2ZM525.27,2h-11.98V0h11.98v2ZM505.29,2h-11.98V0h11.98v2ZM485.32,2h-11.98V0h11.98v2ZM465.35,2h-11.98V0h11.98v2ZM445.38,2h-11.98V0h11.98v2ZM425.41,2h-11.98V0h11.98v2ZM405.43,2h-11.98V0h11.98v2ZM385.46,2h-11.98V0h11.98v2ZM365.49,2h-11.98V0h11.98v2ZM345.52,2h-11.98V0h11.98v2ZM325.55,2h-11.98V0h11.98v2ZM305.57,2h-11.98V0h11.98v2ZM285.6,2h-11.98V0h11.98v2ZM265.63,2h-11.98V0h11.98v2ZM245.66,2h-11.98V0h11.98v2ZM225.69,2h-11.98V0h11.98v2ZM205.71,2h-11.98V0h11.98v2ZM185.74,2h-11.98V0h11.98v2ZM165.77,2h-11.98V0h11.98v2ZM145.8,2h-11.98V0h11.98v2ZM125.83,2h-11.98V0h11.98v2ZM105.85,2h-11.98V0h11.98v2ZM85.88,2h-11.98V0h11.98v2ZM65.91,2h-11.98V0h11.98v2ZM45.94,2h-11.98V0h11.98v2ZM25.97,2h-11.98V0h11.98v2Z"/>
      <rect class="cls-1" width="6" height="2"/>
    </g>
  </g>
</svg>