<?xml version="1.0" encoding="UTF-8"?>
<svg id="Layer_2" xmlns="http://www.w3.org/2000/svg" viewBox="0 0 90.48 90.62">
  <defs>
    <style>
      .cls-1 {
        fill: #1b9d49;
        fill-rule: evenodd;
      }
    </style>
  </defs>
  <g id="Camada_4">
    <path class="cls-1" d="M45.24,0c24.98,0,45.23,20.29,45.23,45.31s-20.25,45.3-45.23,45.3S0,70.33,0,45.31,20.26,0,45.24,0h0ZM63.92,18.45c-12.15,10.45-21.69,23.59-27.87,38.38-3.06-4.22-7.03-7.72-11.6-10.22-6.58-3.06-9.29,5.67-6.28,7.6,5.6,4.43,10.68,9.49,15.14,15.06,3.82,4.76,7.12,7.17,9.59-.02,5.89-17.1,16.11-32.4,29.68-44.4,3.49-3.9-3.1-11.33-8.66-6.41h0Z"/>
  </g>
</svg>