<?xml version="1.0" encoding="UTF-8"?>
<svg id="Layer_2" xmlns="http://www.w3.org/2000/svg" viewBox="0 0 90.47 90.62">
  <defs>
    <style>
      .cls-1 {
        fill: #ed2425;
        fill-rule: evenodd;
      }
    </style>
  </defs>
  <g id="Camada_4">
    <path class="cls-1" d="M45.24,0c24.98,0,45.23,20.29,45.23,45.31s-20.25,45.3-45.23,45.3S0,70.33,0,45.31,20.25,0,45.24,0h0ZM21.94,62.28c4.73-6.5,9.74-12.79,15.02-18.84-3.27-5.98-6.14-12.17-8.61-18.55-1.02-2.06-.44-4.55,1.38-5.94,2.17-1.66,5.19-1.27,6.62,1.12,2.86,4.8,5.9,9.49,9.12,14.06,5.44-5.7,11.14-11.16,17.07-16.38,5.47-4.81,11.09,2.31,6.83,6.75-5.87,6.12-11.55,12.43-17.01,18.92,3.29,4.21,6.74,8.3,10.33,12.27,6.37,7.04-5.55,16.78-11.3,9.51-2.78-3.51-5.4-7.14-7.86-10.87-4.58,5.87-8.99,11.89-13.23,18.01-3.72,5.38-15.64-.04-8.35-10.07h0Z"/>
  </g>
</svg>