<?xml version="1.0" encoding="UTF-8"?>
<svg id="Layer_2" xmlns="http://www.w3.org/2000/svg" xmlns:xlink="http://www.w3.org/1999/xlink" viewBox="0 0 550.5 106.91">
  <defs>
    <style>
      .cls-1 {
        fill: #caa282;
      }

      .cls-2 {
        fill: #c19776;
      }

      .cls-3 {
        fill: #c79f7f;
      }

      .cls-4 {
        fill: #cda788;
      }

      .cls-5 {
        fill: #d9b899;
      }

      .cls-6 {
        fill: #c39a79;
      }

      .cls-7 {
        fill: #bc8f6e;
      }

      .cls-8 {
        fill: #d3af90;
      }

      .cls-9 {
        fill: #c69e7d;
      }

      .cls-10 {
        fill: #c39978;
      }

      .cls-11 {
        fill: #c29877;
      }

      .cls-12 {
        fill: #634b3a;
      }

      .cls-13 {
        fill: #c19675;
      }

      .cls-14, .cls-15 {
        fill: none;
      }

      .cls-16 {
        fill: #d1ad8e;
      }

      .cls-17 {
        fill: #d8b798;
      }

      .cls-18 {
        fill: #d3b091;
      }

      .cls-19 {
        fill: #bc906f;
      }

      .cls-20 {
        fill: #be9372;
      }

      .cls-21 {
        clip-path: url(#clippath-1);
      }

      .cls-22 {
        fill: #caa383;
      }

      .cls-23 {
        fill: #c59d7c;
      }

      .cls-24 {
        fill: #d0ab8c;
      }

      .cls-25 {
        fill: #cca585;
      }

      .cls-26 {
        fill: #c8a080;
      }

      .cls-27 {
        fill: #c59c7b;
      }

      .cls-28 {
        fill: #bb8e6d;
      }

      .cls-15 {
        clip-rule: evenodd;
      }

      .cls-29 {
        fill: #bf9473;
      }

      .cls-30 {
        fill: #c9a181;
      }

      .cls-31 {
        fill: #cea98a;
      }

      .cls-32 {
        fill: #d4b192;
      }

      .cls-33 {
        fill: #d5b293;
      }

      .cls-34 {
        fill: #cca686;
      }

      .cls-35 {
        fill: #d1ac8d;
      }

      .cls-36 {
        fill: #85644d;
      }

      .cls-37 {
        fill: #be9271;
      }

      .cls-38 {
        fill: #bd9170;
      }

      .cls-39 {
        fill: #c09574;
      }

      .cls-40 {
        fill: #d8b697;
      }

      .cls-41 {
        fill: #cea889;
      }

      .cls-42 {
        fill: #cba484;
      }

      .cls-43 {
        fill: #c79f7e;
      }

      .cls-44 {
        fill: #d2ae8f;
      }

      .cls-45 {
        fill: #d5b394;
      }

      .cls-46 {
        fill: #cfaa8b;
      }

      .cls-47 {
        fill: #c49b7a;
      }

      .cls-48 {
        fill: #d7b596;
      }

      .cls-49 {
        clip-path: url(#clippath);
      }

      .cls-50 {
        fill: #d6b495;
      }
    </style>
    <clipPath id="clippath">
      <path class="cls-15" d="M75.62,74.56h6.52v-6.52h-6.52v6.52ZM75.62,77.82v6.52h6.52v-6.52h-6.52ZM72.36,77.82h-6.52v6.52h6.52v-6.52ZM72.36,74.56v-6.52h-6.52v6.52h6.52ZM66.49,37.97l-16.67-16.67-30.72,30.72,16.67,16.67,30.72-30.72ZM98.16,21.3l-16.67,16.67,30.72,30.72,16.67-16.67-30.72-30.72ZM104.71,76.19l-30.72-30.72-30.72,30.72c10.24,10.24,20.48,20.48,30.72,30.72,10.24-10.24,20.48-20.48,30.72-30.72ZM73.99,30.47l24.17-24.17,38.22,38.22,11.61-11.61L115.08,0H32.91L0,32.91l11.6,11.61L49.82,6.3l24.17,24.17Z"/>
    </clipPath>
    <clipPath id="clippath-1">
      <rect class="cls-14" x="0" y="0" width="147.99" height="106.91"/>
    </clipPath>
  </defs>
  <g id="Camada_4">
    <g>
      <g class="cls-49">
        <g class="cls-21">
          <rect class="cls-28" y="104.81" width="147.99" height="2.09"/>
          <rect class="cls-7" y="102.72" width="147.99" height="2.09"/>
          <rect class="cls-19" y="100.63" width="147.99" height="2.09"/>
          <rect class="cls-38" y="98.54" width="147.99" height="2.09"/>
          <rect class="cls-37" y="96.45" width="147.99" height="2.09"/>
          <rect class="cls-20" y="94.36" width="147.99" height="2.09"/>
          <rect class="cls-29" y="92.27" width="147.99" height="2.09"/>
          <rect class="cls-39" y="90.18" width="147.99" height="2.09"/>
          <rect class="cls-13" y="88.09" width="147.99" height="2.09"/>
          <rect class="cls-2" y="86" width="147.99" height="2.09"/>
          <rect class="cls-11" y="83.91" width="147.99" height="2.09"/>
          <rect class="cls-10" y="81.82" width="147.99" height="2.09"/>
          <rect class="cls-6" y="79.73" width="147.99" height="2.09"/>
          <rect class="cls-47" y="77.64" width="147.99" height="2.09"/>
          <rect class="cls-27" y="75.55" width="147.99" height="2.09"/>
          <rect class="cls-23" y="73.46" width="147.99" height="2.09"/>
          <rect class="cls-9" y="71.37" width="147.99" height="2.09"/>
          <rect class="cls-43" y="69.27" width="147.99" height="2.09"/>
          <rect class="cls-3" y="67.18" width="147.99" height="2.09"/>
          <rect class="cls-26" y="65.09" width="147.99" height="2.09"/>
          <rect class="cls-30" y="63" width="147.99" height="2.09"/>
          <rect class="cls-1" y="60.91" width="147.99" height="2.09"/>
          <rect class="cls-22" y="58.82" width="147.99" height="2.09"/>
          <rect class="cls-42" y="56.73" width="147.99" height="2.09"/>
          <rect class="cls-25" y="54.64" width="147.99" height="2.09"/>
          <rect class="cls-34" y="52.55" width="147.99" height="2.09"/>
          <rect class="cls-4" y="50.46" width="147.99" height="2.09"/>
          <rect class="cls-41" y="48.37" width="147.99" height="2.09"/>
          <rect class="cls-31" y="46.28" width="147.99" height="2.09"/>
          <rect class="cls-46" y="44.19" width="147.99" height="2.09"/>
          <rect class="cls-24" y="42.1" width="147.99" height="2.09"/>
          <rect class="cls-35" y="40.01" width="147.99" height="2.09"/>
          <rect class="cls-16" y="37.92" width="147.99" height="2.09"/>
          <rect class="cls-44" y="35.83" width="147.99" height="2.09"/>
          <rect class="cls-8" y="33.73" width="147.99" height="2.09"/>
          <rect class="cls-18" y="31.64" width="147.99" height="2.09"/>
          <rect class="cls-32" y="29.55" width="147.99" height="2.09"/>
          <rect class="cls-33" y="27.46" width="147.99" height="2.09"/>
          <rect class="cls-45" y="25.37" width="147.99" height="2.09"/>
          <rect class="cls-50" y="23.28" width="147.99" height="2.09"/>
          <rect class="cls-48" y="21.19" width="147.99" height="2.09"/>
          <rect class="cls-40" y="19.1" width="147.99" height="2.09"/>
          <rect class="cls-17" y="17.01" width="147.99" height="2.09"/>
          <rect class="cls-5" y="14.92" width="147.99" height="2.09"/>
          <rect class="cls-5" width="147.99" height="14.92"/>
        </g>
      </g>
      <g>
        <path class="cls-36" d="M180.91,46.49c0-4.2-.31-4.47-3.15-4.71v-1.52h12.61v1.52c-2.53.23-2.84.51-2.84,4.71v11.79c0,4.94-.7,8.83-5.56,11.09-1.52.7-2.96,1.13-4.71,1.36l-.58-1.56c2.1-.82,3.39-2.14,3.81-4.71.31-1.95.43-4.01.43-6.23v-11.75Z"/>
        <path class="cls-36" d="M191.42,62.52c0-2.02,1.48-3.5,3.39-3.5s3.42,1.48,3.42,3.5-1.48,3.5-3.42,3.5-3.39-1.44-3.39-3.5Z"/>
        <path class="cls-36" d="M228.66,47.7c-1.25-4.75-3.66-5.99-6.42-5.99-4.67,0-7.55,5.06-7.55,10.66,0,7.16,3.5,11.75,7.51,11.75,3.38,0,5.33-2.18,7.32-6.46l1.71.27c-.51,2.3-1.44,5.64-2.1,7.12-.97.27-4.47,1.09-7.08,1.09-10.47,0-14.59-6.62-14.59-12.88,0-8.05,6.3-13.58,15.29-13.58,3.23,0,5.84.78,6.93,1.01.31,2.14.47,3.85.7,6.77l-1.71.23Z"/>
        <path class="cls-36" d="M243.41,46.49c0-4.2-.31-4.47-2.92-4.71v-1.52h18.44c.04.66.23,3.5.43,6.42l-1.71.12c-.39-1.91-.82-3-1.44-3.62-.62-.66-1.91-.89-3.97-.89h-.66c-1.48,0-1.56,0-1.56,1.36v7.51h1.95c3.35,0,3.46-.23,3.85-3.19h1.71v9.18h-1.71c-.39-3.42-.51-3.66-3.85-3.66h-1.95v6.34c0,2.02.08,3,.78,3.35.62.31,1.52.35,2.72.35,1.56,0,3.27-.23,4.12-1.17.66-.7,1.32-2.14,1.91-4.01l1.71.27c-.2,1.91-1.01,5.88-1.36,6.93h-19.8v-1.52c3-.23,3.31-.51,3.31-4.71v-12.84Z"/>
        <path class="cls-36" d="M273.61,53.34c-1.36-2.92-2.96-3.74-4.2-3.74-1.01,0-1.79.78-1.79,1.79,0,1.17,1.32,1.95,2.53,2.37,3.38,1.17,5.91,2.68,5.91,6.07,0,4.36-4.2,6.19-7.63,6.19-2.37,0-4.63-.93-5.41-1.71-.23-.66-.7-3.62-.7-5.1l1.44-.23c1.09,2.57,3.23,5.1,5.14,5.1,1.36,0,2.14-.89,2.14-1.98,0-1.36-1.05-2.22-2.8-2.88-1.95-.74-5.37-2.14-5.37-5.53s2.72-5.99,6.96-6.03c1.67-.04,3.35.39,4.28.86.47.93,1.01,3.93,1.05,4.47l-1.56.35Z"/>
        <path class="cls-36" d="M285.48,59.64c0,2.72,1.09,3.27,1.79,3.27.54,0,1.21-.12,1.87-.47l.54,1.36-3.74,1.75c-.82.39-1.17.47-1.6.47-3.07,0-4.98-1.32-4.98-5.1v-10.54h-2.37l-.39-.62,1.25-1.63h1.52v-2.57l5.45-2.88.66.35v5.1h3.5c.51.43.43,1.95-.27,2.26h-3.23v9.26Z"/>
        <path class="cls-36" d="M299.22,61.43c0,2.18.19,2.37,2.88,2.61v1.52h-11.36v-1.52c2.18-.23,2.37-.43,2.37-2.61v-8.37c0-2.37-.08-2.41-2.29-2.68v-1.32c3.31-.31,5.8-.86,8.21-1.4v3.39h.08c.43-.7.97-1.52,1.6-2.18.66-.7,1.48-1.21,2.57-1.21,1.63,0,2.72,1.25,2.72,2.76,0,2.37-1.75,3.46-2.8,3.46-.43,0-.74-.12-1.01-.31-.74-.54-1.28-.93-1.87-.93-.47,0-.93.27-1.09,1.05v7.74Z"/>
        <path class="cls-36" d="M322.57,60.5c0,1.63.47,2.22,1.01,2.22.39,0,.89-.2,1.28-.35l.47,1.4-4.86,2.26c-2.02,0-3.04-1.05-3.46-2.14-1.59.9-3.15,2.14-3.85,2.14-3.77,0-5.84-2.57-5.84-5.52,0-2.22,1.13-3.39,3.54-4.28,2.06-.78,4.67-1.67,5.91-2.3v-1.13c0-1.63-1.05-2.8-2.1-2.8-.47,0-.89.16-1.17.51-.47.62-.82,1.79-1.17,3.27-.19.78-.93,1.13-1.63,1.13-1.05,0-3.03-.74-3.03-2.18,0-.78.51-1.4,1.48-2.18,1.28-1.01,4.4-2.45,7.2-2.88,2.33,0,3.54.47,4.55,1.21,1.4,1.01,1.67,2.41,1.67,3.85v7.78ZM316.77,55.98c-.86.31-1.36.54-1.95.9-1.01.54-1.48,1.48-1.48,2.76,0,2.14,1.52,3.07,2.22,3.07.27,0,.78-.12,1.21-.35v-6.38Z"/>
        <path class="cls-36" d="M333.93,59.64c0,2.72,1.09,3.27,1.79,3.27.54,0,1.21-.12,1.87-.47l.54,1.36-3.74,1.75c-.82.39-1.17.47-1.59.47-3.07,0-4.98-1.32-4.98-5.1v-10.54h-2.37l-.39-.62,1.25-1.63h1.52v-2.57l5.45-2.88.66.35v5.1h3.5c.51.43.43,1.95-.27,2.26h-3.23v9.26Z"/>
        <path class="cls-36" d="M354.75,61.63c-2.45,3.54-5.64,4.4-6.96,4.4-5.49,0-8.87-3.73-8.87-8.6,0-5.33,4.2-9.77,9.46-9.77,3.11,0,6.46,2.72,6.46,6.38,0,1.32-.16,1.4-.97,1.56-.58.12-5.29.51-9.03.66.08,3.5,2.72,5.6,4.9,5.6,1.48,0,2.69-.51,4.28-1.48l.74,1.24ZM344.4,46.18l4.24-5.8c.62-.86,1.17-.86,2.18-.31l1.09.58c.89.47.89,1.17,0,1.79l-6.42,4.55-1.09-.82ZM348.37,54.08c.66-.04.82-.16.82-.82,0-1.71-1.21-3.58-2.18-3.58-.86,0-2.06,1.28-2.1,4.51l3.46-.12Z"/>
        <path class="cls-36" d="M358.56,72.44c-1.28-.93-1.87-2.3-1.87-3.39,0-.78.27-1.32.86-1.75.66-.47,2.61-1.29,3.31-1.6-1.36-.54-2.33-1.4-2.88-2.22-.39-.54-.66-1.44-.58-2.22,1.91-.74,3.46-1.6,4.4-2.1v-.08c-3.15-.58-4.75-2.88-4.75-5.1,0-4.24,4.09-6.34,8.13-6.34,1.67,0,3.23.35,4.47.93,1.87-.08,4.4-.35,5.53-.47l.31.39c-.16.82-.89,2.06-1.48,2.49l-2.1-.23c.58.78.86,1.75.86,2.61,0,3.97-3.81,6.11-7.94,6.11-.27,0-.47,0-.78-.04-.39.16-.74.51-.74.86,0,.51.39,1.13,2.06,1.13.62,0,1.95-.04,3.35-.04,2.18,0,5.95.7,5.95,5.06,0,4.12-4.32,7.63-10.08,7.63-2.68,0-4.71-.7-6.03-1.63ZM367.98,66.49c-.93-.31-1.71-.39-2.92-.39-1.32,0-2.06.16-2.41.54-.35.35-.58.93-.58,1.67,0,2.26,1.87,3.54,4.28,3.54s3.5-1.36,3.5-3.03c0-1.09-.86-2.02-1.87-2.34ZM365.26,57.66c1.13,0,1.91-1.17,1.91-3.77,0-2.3-1.01-4.44-2.33-4.44-1.01,0-1.83,1.28-1.83,3.66,0,2.8,1.25,4.55,2.26,4.55Z"/>
        <path class="cls-36" d="M378.41,53.07c0-2.37-.08-2.41-2.26-2.68v-1.32c2.33-.31,5.49-.86,8.37-1.4v13.74c0,2.22.19,2.41,2.26,2.65v1.52h-10.62v-1.52c2.06-.23,2.26-.43,2.26-2.65v-8.33ZM384.75,42.41c0,1.87-1.48,3.38-3.38,3.38s-3.39-1.52-3.39-3.38,1.56-3.39,3.39-3.39,3.38,1.48,3.38,3.39Z"/>
        <path class="cls-36" d="M403.2,60.5c0,1.63.47,2.22,1.01,2.22.39,0,.9-.2,1.28-.35l.47,1.4-4.86,2.26c-2.02,0-3.04-1.05-3.46-2.14-1.6.9-3.15,2.14-3.85,2.14-3.77,0-5.84-2.57-5.84-5.52,0-2.22,1.13-3.39,3.54-4.28,2.06-.78,4.67-1.67,5.92-2.3v-1.13c0-1.63-1.05-2.8-2.1-2.8-.47,0-.89.16-1.17.51-.47.62-.82,1.79-1.17,3.27-.19.78-.93,1.13-1.63,1.13-1.05,0-3.04-.74-3.04-2.18,0-.78.51-1.4,1.48-2.18,1.28-1.01,4.4-2.45,7.2-2.88,2.33,0,3.54.47,4.55,1.21,1.4,1.01,1.67,2.41,1.67,3.85v7.78ZM397.4,55.98c-.86.31-1.36.54-1.95.9-1.01.54-1.48,1.48-1.48,2.76,0,2.14,1.52,3.07,2.22,3.07.27,0,.78-.12,1.21-.35v-6.38Z"/>
        <path class="cls-36" d="M430.28,61.63c-2.45,3.54-5.64,4.4-6.96,4.4-5.49,0-8.87-3.73-8.87-8.6,0-5.33,4.2-9.77,9.46-9.77,3.11,0,6.46,2.72,6.46,6.38,0,1.32-.16,1.4-.97,1.56-.58.12-5.29.51-9.03.66.08,3.5,2.72,5.6,4.9,5.6,1.48,0,2.68-.51,4.28-1.48l.74,1.24ZM423.9,54.08c.66-.04.82-.16.82-.82,0-1.71-1.21-3.58-2.18-3.58-.86,0-2.06,1.28-2.1,4.51l3.46-.12Z"/>
        <path class="cls-36" d="M461.84,47.89c-1.17-5.14-4.4-6.19-6.93-6.19-4.12,0-7.55,4.09-7.55,10.74,0,6.03,2.57,11.67,7.94,11.67.97,0,1.59-.31,1.59-2.14v-3.74c0-2.61-.16-2.88-4.24-3.19v-1.75h13v1.75c-1.98.35-2.14.47-2.14,3.19v2.8c0,1.4.04,2.65.23,3.54-2.41.66-5.56,1.56-8.79,1.56-9.3,0-14.82-5.02-14.82-12.96,0-8.91,7.08-13.5,15.37-13.5,3,0,6.07.66,7.43,1.01.12,1.32.31,3.35.62,7.08l-1.71.12Z"/>
        <path class="cls-36" d="M482.94,61.63c-2.45,3.54-5.64,4.4-6.97,4.4-5.49,0-8.87-3.73-8.87-8.6,0-5.33,4.2-9.77,9.46-9.77,3.11,0,6.46,2.72,6.46,6.38,0,1.32-.16,1.4-.97,1.56-.58.12-5.29.51-9.03.66.08,3.5,2.72,5.6,4.9,5.6,1.48,0,2.68-.51,4.28-1.48l.74,1.24ZM476.56,54.08c.66-.04.82-.16.82-.82,0-1.71-1.21-3.58-2.18-3.58-.86,0-2.06,1.28-2.1,4.51l3.46-.12Z"/>
        <path class="cls-36" d="M495.98,53.34c-1.36-2.92-2.96-3.74-4.2-3.74-1.01,0-1.79.78-1.79,1.79,0,1.17,1.32,1.95,2.53,2.37,3.38,1.17,5.91,2.68,5.91,6.07,0,4.36-4.2,6.19-7.63,6.19-2.37,0-4.63-.93-5.41-1.71-.23-.66-.7-3.62-.7-5.1l1.44-.23c1.09,2.57,3.23,5.1,5.14,5.1,1.36,0,2.14-.89,2.14-1.98,0-1.36-1.05-2.22-2.8-2.88-1.95-.74-5.37-2.14-5.37-5.53s2.72-5.99,6.96-6.03c1.67-.04,3.35.39,4.28.86.47.93,1.01,3.93,1.05,4.47l-1.56.35Z"/>
        <path class="cls-36" d="M507.84,59.64c0,2.72,1.09,3.27,1.79,3.27.54,0,1.21-.12,1.87-.47l.54,1.36-3.74,1.75c-.82.39-1.17.47-1.59.47-3.07,0-4.98-1.32-4.98-5.1v-10.54h-2.37l-.39-.62,1.25-1.63h1.52v-2.57l5.45-2.88.66.35v5.1h3.5c.51.43.43,1.95-.27,2.26h-3.23v9.26Z"/>
        <path class="cls-36" d="M528.31,60.5c0,1.63.47,2.22,1.01,2.22.39,0,.89-.2,1.28-.35l.47,1.4-4.86,2.26c-2.02,0-3.03-1.05-3.46-2.14-1.59.9-3.15,2.14-3.85,2.14-3.77,0-5.84-2.57-5.84-5.52,0-2.22,1.13-3.39,3.54-4.28,2.06-.78,4.67-1.67,5.91-2.3v-1.13c0-1.63-1.05-2.8-2.1-2.8-.47,0-.9.16-1.17.51-.47.62-.82,1.79-1.17,3.27-.19.78-.93,1.13-1.63,1.13-1.05,0-3.04-.74-3.04-2.18,0-.78.51-1.4,1.48-2.18,1.28-1.01,4.4-2.45,7.2-2.88,2.33,0,3.54.47,4.55,1.21,1.4,1.01,1.67,2.41,1.67,3.85v7.78ZM527.73,41.98c-1.79,2.88-3.31,3.58-4.36,3.58s-2.06-.47-3.19-.86c-.74-.23-1.4-.54-2.14-.54-.78,0-1.67.54-2.65,1.75l-1.05-.9c1.71-2.88,3.31-3.58,4.28-3.58.89,0,1.52.27,2.8.7,1.09.39,1.91.66,2.65.66.93,0,1.75-.58,2.65-1.63l1.01.82ZM522.52,55.98c-.86.31-1.36.54-1.95.9-1.01.54-1.48,1.48-1.48,2.76,0,2.14,1.52,3.07,2.22,3.07.27,0,.78-.12,1.21-.35v-6.38Z"/>
        <path class="cls-36" d="M550.5,56.65c0,6.23-4.63,9.38-9.42,9.38-6.11,0-9.3-4.36-9.3-8.79,0-6.26,4.79-9.57,9.57-9.57,5.76,0,9.14,4.05,9.14,8.99ZM543.69,58.98c0-6.96-1.25-9.46-2.88-9.46-1.21,0-2.22,1.95-2.22,5.6,0,4.67,1.01,9.03,3,9.03,1.01,0,2.1-1.01,2.1-5.17Z"/>
      </g>
      <g>
        <path class="cls-12" d="M195.59,82.27c.94-.16,2.17-.29,3.73-.29,1.92,0,3.33.45,4.22,1.25.83.71,1.32,1.81,1.32,3.15s-.4,2.44-1.16,3.22c-1.03,1.1-2.7,1.65-4.6,1.65-.58,0-1.12-.02-1.56-.13v6.03h-1.94v-14.88ZM197.53,89.53c.42.11.96.16,1.61.16,2.35,0,3.78-1.14,3.78-3.22s-1.41-2.95-3.55-2.95c-.85,0-1.5.07-1.83.16v5.85Z"/>
        <path class="cls-12" d="M207.04,89.71c0-1.27-.02-2.37-.09-3.37h1.72l.07,2.12h.09c.49-1.45,1.67-2.37,2.99-2.37.22,0,.38.02.56.07v1.85c-.2-.04-.4-.07-.67-.07-1.39,0-2.37,1.05-2.64,2.52-.04.27-.09.58-.09.92v5.76h-1.94v-7.44Z"/>
        <path class="cls-12" d="M223.91,91.65c0,4-2.77,5.74-5.38,5.74-2.93,0-5.18-2.14-5.18-5.56,0-3.62,2.37-5.74,5.36-5.74s5.21,2.26,5.21,5.56ZM215.33,91.76c0,2.37,1.36,4.15,3.28,4.15s3.28-1.76,3.28-4.2c0-1.83-.92-4.16-3.24-4.16s-3.33,2.14-3.33,4.2Z"/>
        <path class="cls-12" d="M234.09,96.74c-.51.27-1.65.63-3.11.63-3.26,0-5.38-2.21-5.38-5.52s2.28-5.74,5.81-5.74c1.16,0,2.19.29,2.72.56l-.45,1.52c-.47-.27-1.21-.51-2.28-.51-2.48,0-3.82,1.83-3.82,4.09,0,2.5,1.61,4.04,3.75,4.04,1.12,0,1.85-.29,2.41-.54l.34,1.47Z"/>
        <path class="cls-12" d="M237.35,92.1c.04,2.66,1.74,3.75,3.71,3.75,1.41,0,2.26-.25,2.99-.56l.33,1.41c-.69.31-1.88.67-3.6.67-3.33,0-5.32-2.19-5.32-5.45s1.92-5.83,5.07-5.83c3.53,0,4.47,3.1,4.47,5.09,0,.4-.04.71-.07.92h-7.6ZM243.12,90.69c.02-1.25-.51-3.2-2.73-3.2-1.99,0-2.86,1.83-3.02,3.2h5.74Z"/>
        <path class="cls-12" d="M247.18,95.14c.58.38,1.61.78,2.59.78,1.43,0,2.1-.71,2.1-1.61,0-.94-.56-1.45-2.01-1.99-1.94-.69-2.86-1.77-2.86-3.06,0-1.74,1.41-3.17,3.73-3.17,1.09,0,2.05.31,2.66.67l-.49,1.43c-.42-.27-1.21-.63-2.21-.63-1.16,0-1.81.67-1.81,1.47,0,.89.65,1.3,2.06,1.83,1.88.71,2.84,1.65,2.84,3.26,0,1.9-1.47,3.24-4.04,3.24-1.18,0-2.28-.29-3.04-.74l.49-1.5Z"/>
        <path class="cls-12" d="M256.02,95.14c.58.38,1.61.78,2.59.78,1.43,0,2.1-.71,2.1-1.61,0-.94-.56-1.45-2.01-1.99-1.94-.69-2.86-1.77-2.86-3.06,0-1.74,1.41-3.17,3.73-3.17,1.09,0,2.06.31,2.66.67l-.49,1.43c-.42-.27-1.21-.63-2.21-.63-1.16,0-1.81.67-1.81,1.47,0,.89.65,1.3,2.05,1.83,1.88.71,2.84,1.65,2.84,3.26,0,1.9-1.47,3.24-4.04,3.24-1.18,0-2.28-.29-3.04-.74l.49-1.5Z"/>
        <path class="cls-12" d="M274.92,91.65c0,4-2.77,5.74-5.38,5.74-2.93,0-5.18-2.14-5.18-5.56,0-3.62,2.37-5.74,5.36-5.74s5.21,2.26,5.21,5.56ZM266.34,91.76c0,2.37,1.36,4.15,3.28,4.15s3.28-1.76,3.28-4.2c0-1.83-.92-4.16-3.24-4.16s-3.33,2.14-3.33,4.2Z"/>
        <path class="cls-12" d="M291.47,81.29v13.07c0,.96.02,2.06.09,2.79h-1.76l-.09-1.88h-.04c-.6,1.21-1.92,2.12-3.69,2.12-2.61,0-4.62-2.21-4.62-5.5-.02-3.6,2.21-5.81,4.85-5.81,1.65,0,2.77.78,3.26,1.65h.04v-6.46h1.97ZM289.5,90.74c0-.25-.02-.58-.09-.83-.29-1.25-1.36-2.28-2.84-2.28-2.03,0-3.24,1.79-3.24,4.18,0,2.19,1.07,4,3.19,4,1.32,0,2.52-.87,2.88-2.35.07-.27.09-.54.09-.85v-1.88Z"/>
        <path class="cls-12" d="M295.82,92.1c.04,2.66,1.74,3.75,3.71,3.75,1.41,0,2.26-.25,2.99-.56l.33,1.41c-.69.31-1.88.67-3.6.67-3.33,0-5.32-2.19-5.32-5.45s1.92-5.83,5.07-5.83c3.53,0,4.47,3.1,4.47,5.09,0,.4-.04.71-.07.92h-7.6ZM301.58,90.69c.02-1.25-.51-3.2-2.73-3.2-1.99,0-2.86,1.83-3.02,3.2h5.74Z"/>
        <path class="cls-12" d="M310.65,89.71c0-1.27-.02-2.37-.09-3.37h1.72l.07,2.12h.09c.49-1.45,1.67-2.37,2.99-2.37.22,0,.38.02.56.07v1.85c-.2-.04-.4-.07-.67-.07-1.39,0-2.37,1.05-2.64,2.52-.04.27-.09.58-.09.92v5.76h-1.94v-7.44Z"/>
        <path class="cls-12" d="M318.82,92.1c.04,2.66,1.74,3.75,3.71,3.75,1.41,0,2.26-.25,2.99-.56l.33,1.41c-.69.31-1.88.67-3.6.67-3.33,0-5.32-2.19-5.32-5.45s1.92-5.83,5.07-5.83c3.53,0,4.47,3.1,4.47,5.09,0,.4-.04.71-.07.92h-7.6ZM324.59,90.69c.02-1.25-.51-3.2-2.73-3.2-1.99,0-2.86,1.83-3.02,3.2h5.74Z"/>
        <path class="cls-12" d="M328.65,95.14c.58.38,1.61.78,2.59.78,1.43,0,2.1-.71,2.1-1.61,0-.94-.56-1.45-2.01-1.99-1.94-.69-2.86-1.77-2.86-3.06,0-1.74,1.41-3.17,3.73-3.17,1.09,0,2.06.31,2.66.67l-.49,1.43c-.42-.27-1.21-.63-2.21-.63-1.16,0-1.81.67-1.81,1.47,0,.89.65,1.3,2.05,1.83,1.88.71,2.84,1.65,2.84,3.26,0,1.9-1.47,3.24-4.04,3.24-1.18,0-2.28-.29-3.04-.74l.49-1.5Z"/>
        <path class="cls-12" d="M338.86,92.1c.04,2.66,1.74,3.75,3.71,3.75,1.41,0,2.26-.25,2.99-.56l.33,1.41c-.69.31-1.88.67-3.6.67-3.33,0-5.32-2.19-5.32-5.45s1.92-5.83,5.07-5.83c3.53,0,4.47,3.1,4.47,5.09,0,.4-.04.71-.07.92h-7.59ZM344.62,90.69c.02-1.25-.51-3.2-2.72-3.2-1.99,0-2.86,1.83-3.02,3.2h5.74Z"/>
        <path class="cls-12" d="M348.95,89.71c0-1.27-.02-2.37-.09-3.37h1.72l.07,2.12h.09c.49-1.45,1.68-2.37,2.99-2.37.22,0,.38.02.56.07v1.85c-.2-.04-.4-.07-.67-.07-1.38,0-2.37,1.05-2.64,2.52-.04.27-.09.58-.09.92v5.76h-1.94v-7.44Z"/>
        <path class="cls-12" d="M357.57,86.34l2.12,6.08c.36.98.65,1.88.87,2.77h.07c.25-.89.56-1.79.92-2.77l2.1-6.08h2.06l-4.24,10.81h-1.88l-4.11-10.81h2.1Z"/>
        <path class="cls-12" d="M373.45,97.15l-.16-1.36h-.07c-.6.85-1.76,1.61-3.31,1.61-2.19,0-3.31-1.54-3.31-3.11,0-2.61,2.32-4.04,6.5-4.02v-.22c0-.89-.25-2.5-2.46-2.5-1,0-2.05.31-2.81.8l-.45-1.3c.89-.58,2.19-.96,3.55-.96,3.31,0,4.11,2.26,4.11,4.42v4.04c0,.94.04,1.85.18,2.59h-1.79ZM373.16,91.63c-2.14-.04-4.58.34-4.58,2.44,0,1.27.85,1.88,1.85,1.88,1.41,0,2.3-.89,2.61-1.81.07-.2.11-.42.11-.62v-1.88Z"/>
        <path class="cls-12" d="M392.3,81.29v13.07c0,.96.02,2.06.09,2.79h-1.76l-.09-1.88h-.04c-.6,1.21-1.92,2.12-3.69,2.12-2.61,0-4.62-2.21-4.62-5.5-.02-3.6,2.21-5.81,4.85-5.81,1.65,0,2.77.78,3.26,1.65h.04v-6.46h1.97ZM390.33,90.74c0-.25-.02-.58-.09-.83-.29-1.25-1.36-2.28-2.84-2.28-2.03,0-3.24,1.79-3.24,4.18,0,2.19,1.07,4,3.2,4,1.32,0,2.52-.87,2.88-2.35.07-.27.09-.54.09-.85v-1.88Z"/>
        <path class="cls-12" d="M396.65,92.1c.04,2.66,1.74,3.75,3.71,3.75,1.41,0,2.26-.25,2.99-.56l.33,1.41c-.69.31-1.88.67-3.6.67-3.33,0-5.32-2.19-5.32-5.45s1.92-5.83,5.07-5.83c3.53,0,4.47,3.1,4.47,5.09,0,.4-.04.71-.07.92h-7.6ZM402.42,90.69c.02-1.25-.51-3.2-2.73-3.2-1.99,0-2.86,1.83-3.02,3.2h5.74Z"/>
        <path class="cls-12" d="M411.48,81.29h1.97v6.75h.04c.31-.56.8-1.05,1.41-1.38.58-.34,1.27-.56,2.01-.56,1.45,0,3.78.89,3.78,4.62v6.43h-1.97v-6.21c0-1.74-.65-3.22-2.5-3.22-1.27,0-2.28.89-2.64,1.96-.11.27-.13.56-.13.94v6.52h-1.97v-15.86Z"/>
        <path class="cls-12" d="M433.66,91.65c0,4-2.77,5.74-5.38,5.74-2.93,0-5.18-2.14-5.18-5.56,0-3.62,2.37-5.74,5.36-5.74s5.21,2.26,5.21,5.56ZM425.08,91.76c0,2.37,1.36,4.15,3.28,4.15s3.28-1.76,3.28-4.2c0-1.83-.92-4.16-3.24-4.16s-3.33,2.14-3.33,4.2Z"/>
        <path class="cls-12" d="M435.87,95.14c.58.38,1.61.78,2.59.78,1.43,0,2.1-.71,2.1-1.61,0-.94-.56-1.45-2.01-1.99-1.94-.69-2.86-1.77-2.86-3.06,0-1.74,1.41-3.17,3.73-3.17,1.09,0,2.06.31,2.66.67l-.49,1.43c-.42-.27-1.21-.63-2.21-.63-1.16,0-1.81.67-1.81,1.47,0,.89.65,1.3,2.05,1.83,1.88.71,2.84,1.65,2.84,3.26,0,1.9-1.47,3.24-4.04,3.24-1.18,0-2.28-.29-3.04-.74l.49-1.5Z"/>
        <path class="cls-12" d="M444.98,89.87c0-1.39-.04-2.5-.09-3.53h1.77l.09,1.85h.04c.8-1.32,2.08-2.1,3.84-2.1,2.61,0,4.58,2.21,4.58,5.49,0,3.89-2.37,5.81-4.92,5.81-1.43,0-2.68-.62-3.33-1.7h-.04v5.88h-1.94v-11.71ZM446.92,92.75c0,.29.04.56.09.8.36,1.36,1.54,2.3,2.95,2.3,2.08,0,3.28-1.7,3.28-4.18,0-2.17-1.14-4.02-3.22-4.02-1.34,0-2.59.96-2.97,2.44-.07.25-.13.54-.13.8v1.85Z"/>
        <path class="cls-12" d="M458.78,92.1c.04,2.66,1.74,3.75,3.71,3.75,1.41,0,2.26-.25,2.99-.56l.33,1.41c-.69.31-1.88.67-3.6.67-3.33,0-5.32-2.19-5.32-5.45s1.92-5.83,5.07-5.83c3.53,0,4.47,3.1,4.47,5.09,0,.4-.04.71-.07.92h-7.59ZM464.55,90.69c.02-1.25-.51-3.2-2.72-3.2-1.99,0-2.86,1.83-3.02,3.2h5.74Z"/>
        <path class="cls-12" d="M478.21,81.29v13.07c0,.96.02,2.06.09,2.79h-1.76l-.09-1.88h-.04c-.6,1.21-1.92,2.12-3.69,2.12-2.61,0-4.62-2.21-4.62-5.5-.02-3.6,2.21-5.81,4.85-5.81,1.65,0,2.77.78,3.26,1.65h.04v-6.46h1.97ZM476.25,90.74c0-.25-.02-.58-.09-.83-.29-1.25-1.36-2.28-2.84-2.28-2.03,0-3.24,1.79-3.24,4.18,0,2.19,1.07,4,3.19,4,1.32,0,2.52-.87,2.88-2.35.07-.27.09-.54.09-.85v-1.88Z"/>
        <path class="cls-12" d="M487.46,97.15l-.16-1.36h-.07c-.6.85-1.77,1.61-3.31,1.61-2.19,0-3.31-1.54-3.31-3.11,0-2.61,2.32-4.04,6.5-4.02v-.22c0-.89-.25-2.5-2.46-2.5-1,0-2.06.31-2.81.8l-.45-1.3c.89-.58,2.19-.96,3.55-.96,3.31,0,4.11,2.26,4.11,4.42v4.04c0,.94.04,1.85.18,2.59h-1.79ZM487.17,91.63c-2.14-.04-4.58.34-4.58,2.44,0,1.27.85,1.88,1.85,1.88,1.41,0,2.3-.89,2.61-1.81.07-.2.11-.42.11-.62v-1.88Z"/>
        <path class="cls-12" d="M501.55,86.34c-.04.78-.09,1.65-.09,2.97v6.28c0,2.48-.49,4-1.54,4.94-1.05.98-2.57,1.3-3.93,1.3s-2.73-.31-3.6-.89l.49-1.5c.71.45,1.83.85,3.17.85,2.01,0,3.48-1.05,3.48-3.78v-1.21h-.04c-.6,1.01-1.76,1.81-3.44,1.81-2.68,0-4.6-2.28-4.6-5.27,0-3.66,2.39-5.74,4.87-5.74,1.88,0,2.9.98,3.37,1.88h.04l.09-1.63h1.72ZM499.52,90.6c0-.33-.02-.62-.11-.89-.36-1.14-1.32-2.08-2.75-2.08-1.88,0-3.22,1.59-3.22,4.09,0,2.12,1.07,3.89,3.19,3.89,1.21,0,2.3-.76,2.73-2.01.11-.34.16-.71.16-1.05v-1.94Z"/>
        <path class="cls-12" d="M505.82,92.1c.04,2.66,1.74,3.75,3.71,3.75,1.41,0,2.26-.25,2.99-.56l.33,1.41c-.69.31-1.88.67-3.6.67-3.33,0-5.32-2.19-5.32-5.45s1.92-5.83,5.07-5.83c3.53,0,4.47,3.1,4.47,5.09,0,.4-.04.71-.07.92h-7.59ZM511.58,90.69c.02-1.25-.51-3.2-2.72-3.2-1.99,0-2.86,1.83-3.02,3.2h5.74Z"/>
        <path class="cls-12" d="M515.91,89.26c0-1.12-.02-2.03-.09-2.93h1.72l.09,1.74h.07c.6-1.03,1.61-1.99,3.4-1.99,1.47,0,2.59.89,3.06,2.17h.04c.34-.6.76-1.07,1.21-1.41.65-.49,1.36-.76,2.39-.76,1.43,0,3.55.94,3.55,4.69v6.37h-1.92v-6.12c0-2.08-.76-3.33-2.35-3.33-1.12,0-1.99.83-2.32,1.79-.09.27-.16.63-.16.98v6.68h-1.92v-6.48c0-1.72-.76-2.97-2.26-2.97-1.23,0-2.12.98-2.44,1.97-.11.29-.16.62-.16.96v6.52h-1.92v-7.88Z"/>
      </g>
    </g>
  </g>
</svg>