<?xml version="1.0" encoding="UTF-8"?>
<svg id="Layer_2" xmlns="http://www.w3.org/2000/svg" viewBox="0 0 197.49 48.46">
  <defs>
    <style>
      .cls-1 {
        fill: #fff;
        stroke: #fff;
        stroke-miterlimit: 10;
        stroke-width: .5px;
      }

      .cls-2 {
        fill: #397cb2;
      }
    </style>
  </defs>
  <g id="Camada_4">
    <rect class="cls-2" width="197.49" height="48.46"/>
    <g>
      <path class="cls-1" d="M37.25,27.64c0,1.04-.27,1.97-.8,2.8s-1.32,1.48-2.35,1.95-2.25.7-3.67.7c-1.7,0-3.09-.32-4.2-.96-.78-.46-1.42-1.08-1.9-1.85s-.73-1.52-.73-2.24c0-.42.15-.78.44-1.08s.67-.45,1.12-.45c.37,0,.68.12.93.35s.47.58.65,1.04c.22.55.46,1,.71,1.37s.61.67,1.07.91,1.07.36,1.82.36c1.03,0,1.87-.24,2.51-.72s.97-1.08.97-1.8c0-.57-.17-1.03-.52-1.39s-.8-.63-1.35-.81-1.29-.39-2.21-.6c-1.23-.29-2.27-.63-3.1-1.01s-1.49-.91-1.98-1.58-.73-1.5-.73-2.49.26-1.79.77-2.52,1.26-1.3,2.24-1.69,2.12-.59,3.45-.59c1.05,0,1.97.13,2.74.39s1.41.61,1.92,1.04.88.89,1.11,1.37.35.94.35,1.39c0,.41-.15.79-.44,1.12s-.66.5-1.1.5c-.4,0-.7-.1-.91-.3s-.43-.53-.67-.98c-.31-.65-.69-1.15-1.12-1.52s-1.14-.54-2.11-.54c-.9,0-1.62.2-2.17.59s-.83.87-.83,1.42c0,.34.09.64.28.89s.45.46.77.64.66.32,1,.42.89.25,1.66.45c.97.23,1.85.48,2.63.75s1.45.61,2,1,.98.88,1.29,1.48.46,1.33.46,2.2Z"/>
      <path class="cls-1" d="M51.53,18.3h-7.84v4.22h7.22c.53,0,.93.12,1.19.36s.39.55.39.94-.13.71-.39.96-.66.37-1.2.37h-7.22v4.89h8.11c.55,0,.96.13,1.24.38s.42.59.42,1.01-.14.74-.42.99-.69.38-1.24.38h-9.46c-.76,0-1.3-.17-1.63-.5s-.5-.88-.5-1.63v-12.91c0-.5.07-.91.22-1.22s.38-.55.7-.69.72-.22,1.21-.22h9.19c.55,0,.97.12,1.24.37s.4.57.4.97-.13.73-.4.98-.68.37-1.24.37Z"/>
      <path class="cls-1" d="M70.85,27.37c0,.55-.13,1.14-.4,1.78s-.69,1.26-1.27,1.88-1.32,1.11-2.21,1.49-1.95.57-3.14.57c-.91,0-1.73-.09-2.47-.26s-1.42-.44-2.02-.8-1.16-.84-1.67-1.44c-.45-.54-.84-1.14-1.16-1.81s-.56-1.38-.72-2.14-.24-1.56-.24-2.41c0-1.38.2-2.62.6-3.71s.98-2.03,1.73-2.81,1.63-1.37,2.64-1.78,2.08-.61,3.22-.61c1.39,0,2.63.28,3.71.83s1.92,1.24,2.5,2.06.87,1.59.87,2.31c0,.4-.14.75-.42,1.05s-.62.46-1.02.46c-.45,0-.78-.11-1-.32s-.47-.57-.74-1.09c-.45-.85-.99-1.49-1.6-1.91s-1.37-.63-2.27-.63c-1.43,0-2.57.54-3.42,1.63s-1.27,2.63-1.27,4.63c0,1.34.19,2.45.56,3.33s.91,1.55,1.59,1.99,1.49.66,2.41.66c1,0,1.85-.25,2.54-.74s1.21-1.22,1.56-2.19c.15-.45.33-.82.55-1.11s.57-.43,1.05-.43c.41,0,.77.14,1.07.43s.45.65.45,1.08Z"/>
      <path class="cls-1" d="M78.66,25.45h-1.22v5.52c0,.73-.16,1.26-.48,1.61s-.74.52-1.25.52c-.55,0-.98-.18-1.29-.54s-.46-.89-.46-1.58v-13.22c0-.75.17-1.29.5-1.63s.88-.5,1.63-.5h5.66c.78,0,1.45.03,2,.1s1.05.2,1.5.4c.54.23,1.02.55,1.43.97s.73.91.94,1.47.32,1.15.32,1.78c0,1.28-.36,2.3-1.08,3.07s-1.82,1.31-3.29,1.63c.62.33,1.21.81,1.77,1.45s1.06,1.32,1.51,2.04.79,1.38,1.03,1.96.37.98.37,1.2-.07.45-.22.67-.34.4-.59.53-.54.19-.87.19c-.39,0-.72-.09-.98-.28s-.49-.42-.69-.7-.45-.7-.78-1.24l-1.39-2.32c-.5-.85-.95-1.5-1.34-1.95s-.79-.75-1.2-.91-.92-.25-1.54-.25ZM80.65,18.23h-3.21v4.72h3.12c.84,0,1.54-.07,2.11-.22s1.01-.39,1.31-.74.45-.83.45-1.44c0-.48-.12-.9-.36-1.26s-.58-.63-1.01-.81c-.41-.17-1.21-.26-2.4-.26Z"/>
      <path class="cls-1" d="M102.56,18.3h-7.84v4.22h7.22c.53,0,.93.12,1.19.36s.39.55.39.94-.13.71-.39.96-.66.37-1.2.37h-7.22v4.89h8.11c.55,0,.96.13,1.24.38s.42.59.42,1.01-.14.74-.42.99-.69.38-1.24.38h-9.46c-.76,0-1.3-.17-1.63-.5s-.5-.88-.5-1.63v-12.91c0-.5.07-.91.22-1.22s.38-.55.7-.69.72-.22,1.21-.22h9.19c.55,0,.97.12,1.24.37s.4.57.4.97-.13.73-.4.98-.68.37-1.24.37Z"/>
      <path class="cls-1" d="M118.41,18.48h-3.8v12.48c0,.72-.16,1.25-.48,1.6s-.73.52-1.24.52-.94-.18-1.26-.53-.49-.88-.49-1.59v-12.48h-3.8c-.59,0-1.04-.13-1.32-.39s-.43-.61-.43-1.04.15-.8.45-1.05.74-.39,1.31-.39h11.06c.6,0,1.05.13,1.34.4s.44.61.44,1.04-.15.78-.45,1.04-.74.39-1.34.39Z"/>
      <path class="cls-1" d="M131.73,30.85l-.82-2.16h-6.98l-.82,2.2c-.32.86-.59,1.44-.82,1.74s-.6.45-1.11.45c-.44,0-.82-.16-1.16-.48s-.5-.68-.5-1.09c0-.23.04-.48.12-.73s.21-.6.39-1.04l4.39-11.16c.12-.32.28-.71.45-1.15s.36-.82.56-1.12.46-.54.79-.72.72-.28,1.2-.28.89.09,1.21.28.59.42.79.71.37.6.5.93.31.78.52,1.33l4.49,11.09c.35.84.53,1.46.53,1.84s-.17.76-.5,1.1-.73.5-1.2.5c-.27,0-.51-.05-.7-.15s-.36-.23-.49-.4-.28-.43-.43-.77-.28-.65-.39-.92ZM124.84,26.08h5.13l-2.59-7.09-2.54,7.09Z"/>
      <path class="cls-1" d="M142.68,25.45h-1.22v5.52c0,.73-.16,1.26-.48,1.61s-.74.52-1.25.52c-.55,0-.98-.18-1.29-.54s-.46-.89-.46-1.58v-13.22c0-.75.17-1.29.5-1.63s.88-.5,1.63-.5h5.66c.78,0,1.45.03,2,.1s1.05.2,1.5.4c.54.23,1.02.55,1.43.97s.73.91.94,1.47.32,1.15.32,1.78c0,1.28-.36,2.3-1.08,3.07s-1.82,1.31-3.29,1.63c.62.33,1.21.81,1.77,1.45s1.06,1.32,1.51,2.04.79,1.38,1.03,1.96.37.98.37,1.2-.07.45-.22.67-.34.4-.59.53-.54.19-.87.19c-.39,0-.72-.09-.98-.28s-.49-.42-.69-.7-.45-.7-.78-1.24l-1.39-2.32c-.5-.85-.95-1.5-1.34-1.95s-.79-.75-1.2-.91-.92-.25-1.54-.25ZM144.67,18.23h-3.21v4.72h3.12c.84,0,1.54-.07,2.11-.22s1.01-.39,1.31-.74.45-.83.45-1.44c0-.48-.12-.9-.36-1.26s-.58-.63-1.01-.81c-.41-.17-1.21-.26-2.4-.26Z"/>
      <path class="cls-1" d="M155.4,30.96v-13.54c0-.7.16-1.23.48-1.58s.73-.53,1.24-.53.95.17,1.27.52.49.88.49,1.59v13.54c0,.71-.16,1.24-.49,1.59s-.75.53-1.27.53-.91-.18-1.24-.53-.49-.88-.49-1.59Z"/>
      <path class="cls-1" d="M173.77,30.85l-.82-2.16h-6.98l-.82,2.2c-.32.86-.59,1.44-.82,1.74s-.6.45-1.11.45c-.44,0-.82-.16-1.16-.48s-.5-.68-.5-1.09c0-.23.04-.48.12-.73s.21-.6.39-1.04l4.39-11.16c.12-.32.28-.71.45-1.15s.36-.82.56-1.12.46-.54.79-.72.72-.28,1.2-.28.89.09,1.21.28.59.42.79.71.37.6.5.93.31.78.52,1.33l4.49,11.09c.35.84.53,1.46.53,1.84s-.17.76-.5,1.1-.73.5-1.2.5c-.27,0-.51-.05-.7-.15s-.36-.23-.49-.4-.28-.43-.43-.77-.28-.65-.39-.92ZM166.88,26.08h5.13l-2.59-7.09-2.54,7.09Z"/>
    </g>
  </g>
</svg>