<?xml version="1.0" encoding="UTF-8"?>
<svg id="Layer_2" xmlns="http://www.w3.org/2000/svg" viewBox="0 0 194.55 48.46">
  <defs>
    <style>
      .cls-1 {
        fill: #815ba5;
      }

      .cls-2 {
        fill: #fff;
        stroke: #fff;
        stroke-miterlimit: 10;
        stroke-width: .5px;
      }
    </style>
  </defs>
  <g id="Camada_4">
    <rect class="cls-1" width="194.55" height="48.46"/>
    <g>
      <path class="cls-2" d="M34.47,18.3h-6.86v4.39h5.73c.53,0,.93.12,1.19.36s.39.56.39.96-.13.71-.4.95-.66.35-1.18.35h-5.73v5.66c0,.72-.16,1.25-.49,1.6s-.74.52-1.25.52-.94-.18-1.26-.53-.49-.88-.49-1.59v-13.22c0-.5.07-.91.22-1.22s.38-.55.7-.69.72-.22,1.21-.22h8.2c.55,0,.97.12,1.24.37s.4.57.4.97-.13.73-.4.98-.68.37-1.24.37Z"/>
      <path class="cls-2" d="M38.84,30.96v-13.54c0-.7.16-1.23.48-1.58s.73-.53,1.24-.53.95.17,1.27.52.49.88.49,1.59v13.54c0,.71-.16,1.24-.49,1.59s-.75.53-1.27.53-.91-.18-1.24-.53-.49-.88-.49-1.59Z"/>
      <path class="cls-2" d="M50.74,17.4l6.69,10.12v-10.22c0-.66.14-1.16.43-1.49s.67-.5,1.15-.5.89.17,1.18.5.43.83.43,1.49v13.51c0,1.51-.62,2.26-1.88,2.26-.31,0-.59-.04-.84-.13s-.48-.23-.7-.43-.42-.42-.61-.69-.38-.53-.56-.8l-6.53-10.01v10.07c0,.66-.15,1.15-.46,1.49s-.7.5-1.17.5-.89-.17-1.18-.51-.45-.83-.45-1.48v-13.25c0-.56.06-1,.19-1.32.15-.35.39-.64.74-.86s.71-.33,1.11-.33c.31,0,.58.05.8.15s.42.24.59.41.34.39.52.67.36.56.54.86Z"/>
      <path class="cls-2" d="M75.12,30.85l-.82-2.16h-6.98l-.82,2.2c-.32.86-.59,1.44-.82,1.74s-.6.45-1.11.45c-.44,0-.82-.16-1.16-.48s-.5-.68-.5-1.09c0-.23.04-.48.12-.73s.21-.6.39-1.04l4.39-11.16c.12-.32.28-.71.45-1.15s.36-.82.56-1.12.46-.54.79-.72.72-.28,1.2-.28.89.09,1.21.28.59.42.79.71.37.6.5.93.31.78.52,1.33l4.49,11.09c.35.84.53,1.46.53,1.84s-.17.76-.5,1.1-.73.5-1.2.5c-.27,0-.51-.05-.7-.15s-.36-.23-.49-.4-.28-.43-.43-.77-.28-.65-.39-.92ZM68.23,26.08h5.13l-2.59-7.09-2.54,7.09Z"/>
      <path class="cls-2" d="M85.92,17.4l6.69,10.12v-10.22c0-.66.14-1.16.43-1.49s.67-.5,1.15-.5.89.17,1.18.5.43.83.43,1.49v13.51c0,1.51-.62,2.26-1.88,2.26-.31,0-.59-.04-.84-.13s-.48-.23-.7-.43-.42-.42-.61-.69-.38-.53-.56-.8l-6.53-10.01v10.07c0,.66-.15,1.15-.46,1.49s-.7.5-1.17.5-.89-.17-1.18-.51-.45-.83-.45-1.48v-13.25c0-.56.06-1,.19-1.32.15-.35.39-.64.74-.86s.71-.33,1.11-.33c.31,0,.58.05.8.15s.42.24.59.41.34.39.52.67.36.56.54.86Z"/>
      <path class="cls-2" d="M114.26,27.37c0,.55-.13,1.14-.4,1.78s-.69,1.26-1.27,1.88-1.32,1.11-2.21,1.49-1.95.57-3.14.57c-.91,0-1.73-.09-2.47-.26s-1.42-.44-2.02-.8-1.16-.84-1.67-1.44c-.45-.54-.84-1.14-1.16-1.81s-.56-1.38-.72-2.14-.24-1.56-.24-2.41c0-1.38.2-2.62.6-3.71s.98-2.03,1.73-2.81,1.63-1.37,2.64-1.78,2.08-.61,3.22-.61c1.39,0,2.63.28,3.71.83s1.92,1.24,2.5,2.06.87,1.59.87,2.31c0,.4-.14.75-.42,1.05s-.62.46-1.02.46c-.45,0-.78-.11-1-.32s-.47-.57-.74-1.09c-.45-.85-.99-1.49-1.6-1.91s-1.37-.63-2.27-.63c-1.43,0-2.57.54-3.42,1.63s-1.27,2.63-1.27,4.63c0,1.34.19,2.45.56,3.33s.91,1.55,1.59,1.99,1.49.66,2.41.66c1,0,1.85-.25,2.54-.74s1.21-1.22,1.56-2.19c.15-.45.33-.82.55-1.11s.57-.43,1.05-.43c.41,0,.77.14,1.07.43s.45.65.45,1.08Z"/>
      <path class="cls-2" d="M128.71,18.3h-7.84v4.22h7.22c.53,0,.93.12,1.19.36s.39.55.39.94-.13.71-.39.96-.66.37-1.2.37h-7.22v4.89h8.11c.55,0,.96.13,1.24.38s.42.59.42,1.01-.14.74-.42.99-.69.38-1.24.38h-9.46c-.76,0-1.3-.17-1.63-.5s-.5-.88-.5-1.63v-12.91c0-.5.07-.91.22-1.22s.38-.55.7-.69.72-.22,1.21-.22h9.19c.55,0,.97.12,1.24.37s.4.57.4.97-.13.73-.4.98-.68.37-1.24.37Z"/>
      <path class="cls-2" d="M133.54,30.96v-13.54c0-.7.16-1.23.48-1.58s.73-.53,1.24-.53.95.17,1.27.52.49.88.49,1.59v13.54c0,.71-.16,1.24-.49,1.59s-.75.53-1.27.53-.91-.18-1.24-.53-.49-.88-.49-1.59Z"/>
      <path class="cls-2" d="M145.58,25.44h-1.22v5.52c0,.73-.16,1.26-.48,1.61s-.74.52-1.25.52c-.55,0-.98-.18-1.29-.54s-.46-.89-.46-1.58v-13.22c0-.75.17-1.29.5-1.63s.88-.5,1.63-.5h5.66c.78,0,1.45.03,2,.1s1.05.2,1.5.4c.54.23,1.02.55,1.43.97s.73.91.94,1.47.32,1.15.32,1.78c0,1.28-.36,2.3-1.08,3.07s-1.82,1.31-3.29,1.63c.62.33,1.21.81,1.77,1.45s1.06,1.32,1.51,2.04.79,1.38,1.03,1.96.37.98.37,1.2-.07.45-.22.67-.34.4-.59.53-.54.19-.87.19c-.39,0-.72-.09-.98-.28s-.49-.42-.69-.7-.45-.7-.78-1.24l-1.39-2.32c-.5-.85-.95-1.5-1.34-1.95s-.79-.75-1.2-.91-.92-.25-1.54-.25ZM147.57,18.22h-3.21v4.72h3.12c.84,0,1.54-.07,2.11-.22s1.01-.39,1.31-.74.45-.83.45-1.44c0-.48-.12-.9-.36-1.26s-.58-.63-1.01-.81c-.41-.17-1.21-.26-2.4-.26Z"/>
      <path class="cls-2" d="M165.73,15.32c1.78,0,3.31.36,4.59,1.08s2.24,1.75,2.9,3.08.98,2.9.98,4.69c0,1.33-.18,2.54-.54,3.62s-.9,2.03-1.62,2.82-1.6,1.41-2.65,1.83-2.25.63-3.6.63-2.55-.22-3.61-.65-1.95-1.04-2.66-1.83-1.25-1.74-1.61-2.85-.54-2.31-.54-3.6.19-2.53.57-3.63.93-2.04,1.65-2.81,1.59-1.37,2.62-1.78,2.2-.62,3.52-.62ZM170.67,24.15c0-1.26-.2-2.35-.61-3.27s-.99-1.62-1.74-2.09-1.62-.71-2.6-.71c-.7,0-1.34.13-1.93.39s-1.1.64-1.52,1.14-.76,1.14-1.01,1.92-.37,1.65-.37,2.62.12,1.86.37,2.65.59,1.44,1.04,1.96.96.91,1.55,1.17,1.22.39,1.92.39c.89,0,1.71-.22,2.46-.67s1.34-1.13,1.78-2.06.66-2.07.66-3.43Z"/>
    </g>
  </g>
</svg>