<?xml version="1.0" encoding="UTF-8"?>
<svg id="Layer_2" xmlns="http://www.w3.org/2000/svg" viewBox="0 0 241.74 48.46">
  <defs>
    <style>
      .cls-1 {
        fill: #fff;
        stroke: #fff;
        stroke-miterlimit: 10;
        stroke-width: .5px;
      }

      .cls-2 {
        fill: #af4e7a;
      }
    </style>
  </defs>
  <g id="Camada_4">
    <rect class="cls-2" width="241.74" height="48.46"/>
    <g>
      <path class="cls-1" d="M38.84,27.37c0,.55-.13,1.14-.4,1.78s-.69,1.26-1.27,1.88-1.32,1.11-2.21,1.49-1.95.57-3.14.57c-.91,0-1.73-.09-2.47-.26s-1.42-.44-2.02-.8-1.16-.84-1.67-1.44c-.45-.54-.84-1.14-1.16-1.81s-.56-1.38-.72-2.14-.24-1.56-.24-2.41c0-1.38.2-2.62.6-3.71s.98-2.03,1.73-2.81,1.63-1.37,2.64-1.78,2.08-.61,3.22-.61c1.39,0,2.63.28,3.71.83s1.92,1.24,2.5,2.06.87,1.59.87,2.31c0,.4-.14.75-.42,1.05s-.62.46-1.02.46c-.45,0-.78-.11-1-.32s-.47-.57-.74-1.09c-.45-.85-.99-1.49-1.6-1.91s-1.37-.63-2.27-.63c-1.43,0-2.57.54-3.42,1.63s-1.27,2.63-1.27,4.63c0,1.34.19,2.45.56,3.33s.91,1.55,1.59,1.99,1.49.66,2.41.66c1,0,1.85-.25,2.54-.74s1.21-1.22,1.56-2.19c.15-.45.33-.82.55-1.11s.57-.43,1.05-.43c.41,0,.77.14,1.07.43s.45.65.45,1.08Z"/>
      <path class="cls-1" d="M49.52,15.32c1.78,0,3.31.36,4.59,1.08s2.24,1.75,2.9,3.08.98,2.9.98,4.69c0,1.33-.18,2.54-.54,3.62s-.9,2.03-1.62,2.82-1.6,1.41-2.65,1.83-2.25.63-3.6.63-2.55-.22-3.61-.65-1.95-1.04-2.66-1.83-1.25-1.74-1.61-2.85-.54-2.31-.54-3.6.19-2.53.57-3.63.93-2.04,1.65-2.81,1.59-1.37,2.62-1.78,2.2-.62,3.52-.62ZM54.47,24.15c0-1.26-.2-2.35-.61-3.27s-.99-1.62-1.74-2.09-1.62-.71-2.6-.71c-.7,0-1.34.13-1.93.39s-1.1.64-1.52,1.14-.76,1.14-1.01,1.92-.37,1.65-.37,2.62.12,1.86.37,2.65.59,1.44,1.04,1.96.96.91,1.55,1.17,1.22.39,1.92.39c.89,0,1.71-.22,2.46-.67s1.34-1.13,1.78-2.06.66-2.07.66-3.43Z"/>
      <path class="cls-1" d="M65.51,17.4l6.69,10.12v-10.22c0-.66.14-1.16.43-1.49s.67-.5,1.15-.5.89.17,1.18.5.43.83.43,1.49v13.51c0,1.51-.62,2.26-1.88,2.26-.31,0-.59-.04-.84-.13s-.48-.23-.7-.43-.42-.42-.61-.69-.38-.53-.56-.8l-6.53-10.01v10.07c0,.66-.15,1.15-.46,1.49s-.7.5-1.17.5-.89-.17-1.18-.51-.45-.83-.45-1.48v-13.25c0-.56.06-1,.19-1.32.15-.35.39-.64.74-.86s.71-.33,1.11-.33c.31,0,.58.05.8.15s.42.24.59.41.34.39.52.67.36.56.54.86Z"/>
      <path class="cls-1" d="M90.36,18.48h-3.8v12.48c0,.72-.16,1.25-.48,1.6s-.73.52-1.24.52-.94-.18-1.26-.53-.49-.88-.49-1.59v-12.48h-3.8c-.59,0-1.04-.13-1.32-.39s-.43-.61-.43-1.04.15-.8.45-1.05.74-.39,1.31-.39h11.06c.6,0,1.05.13,1.34.4s.44.61.44,1.04-.15.78-.45,1.04-.74.39-1.34.39Z"/>
      <path class="cls-1" d="M103.69,30.85l-.82-2.16h-6.98l-.82,2.2c-.32.86-.59,1.44-.82,1.74s-.6.45-1.11.45c-.44,0-.82-.16-1.16-.48s-.5-.68-.5-1.09c0-.23.04-.48.12-.73s.21-.6.39-1.04l4.39-11.16c.12-.32.28-.71.45-1.15s.36-.82.56-1.12.46-.54.79-.72.72-.28,1.2-.28.89.09,1.21.28.59.42.79.71.37.6.5.93.31.78.52,1.33l4.49,11.09c.35.84.53,1.46.53,1.84s-.17.76-.5,1.1-.73.5-1.2.5c-.27,0-.51-.05-.7-.15s-.36-.23-.49-.4-.28-.43-.43-.77-.28-.65-.39-.92ZM96.8,26.08h5.13l-2.59-7.09-2.54,7.09Z"/>
      <path class="cls-1" d="M117.29,32.79h-5.25c-.76,0-1.3-.17-1.62-.51s-.49-.88-.49-1.62v-12.91c0-.76.17-1.3.5-1.63s.87-.5,1.61-.5h5.57c.82,0,1.53.05,2.13.15s1.14.3,1.62.59c.41.24.77.55,1.08.92s.55.78.71,1.23.25.92.25,1.42c0,1.72-.86,2.98-2.58,3.77,2.26.72,3.39,2.12,3.39,4.2,0,.96-.25,1.83-.74,2.6s-1.16,1.34-1.99,1.71c-.52.22-1.12.37-1.8.46s-1.47.13-2.38.13ZM113.41,18.22v4.44h3.19c.87,0,1.54-.08,2.01-.25s.83-.48,1.08-.94c.2-.33.29-.7.29-1.1,0-.87-.31-1.44-.93-1.73s-1.56-.43-2.82-.43h-2.82ZM117.04,25.16h-3.62v5.02h3.74c2.35,0,3.53-.85,3.53-2.54,0-.87-.3-1.5-.91-1.89s-1.52-.59-2.73-.59Z"/>
      <path class="cls-1" d="M127.36,30.96v-13.54c0-.7.16-1.23.48-1.58s.73-.53,1.24-.53.95.17,1.27.52.49.88.49,1.59v13.54c0,.71-.16,1.24-.49,1.59s-.75.53-1.27.53-.91-.18-1.24-.53-.49-.88-.49-1.59Z"/>
      <path class="cls-1" d="M138.14,17.43v12.5h7.05c.56,0,.99.14,1.29.41s.45.62.45,1.03-.15.76-.45,1.03-.73.39-1.3.39h-8.4c-.76,0-1.3-.17-1.63-.5s-.5-.88-.5-1.63v-13.23c0-.7.16-1.23.47-1.58s.73-.53,1.25-.53.95.17,1.27.52.49.88.49,1.59Z"/>
      <path class="cls-1" d="M149.37,30.96v-13.54c0-.7.16-1.23.48-1.58s.73-.53,1.24-.53.95.17,1.27.52.49.88.49,1.59v13.54c0,.71-.16,1.24-.49,1.59s-.75.53-1.27.53-.91-.18-1.24-.53-.49-.88-.49-1.59Z"/>
      <path class="cls-1" d="M158.89,15.61h4.54c1.18,0,2.19.11,3.04.33s1.61.63,2.3,1.23c1.79,1.53,2.68,3.86,2.68,6.98,0,1.03-.09,1.97-.27,2.82s-.46,1.62-.83,2.3-.86,1.29-1.44,1.83c-.46.41-.96.75-1.51,1s-1.13.43-1.76.53-1.34.15-2.13.15h-4.54c-.63,0-1.11-.1-1.43-.29s-.53-.46-.63-.81-.15-.8-.15-1.35v-12.6c0-.75.17-1.29.5-1.63s.88-.5,1.63-.5ZM160.24,18.37v11.66h2.64c.58,0,1.03-.02,1.36-.05s.67-.11,1.02-.23.66-.3.91-.53c1.16-.98,1.75-2.68,1.75-5.09,0-1.7-.26-2.96-.77-3.81s-1.14-1.38-1.89-1.61-1.66-.35-2.72-.35h-2.3Z"/>
      <path class="cls-1" d="M184.58,30.85l-.82-2.16h-6.98l-.82,2.2c-.32.86-.59,1.44-.82,1.74s-.6.45-1.11.45c-.44,0-.82-.16-1.16-.48s-.5-.68-.5-1.09c0-.23.04-.48.12-.73s.21-.6.39-1.04l4.39-11.16c.12-.32.28-.71.45-1.15s.36-.82.56-1.12.46-.54.79-.72.72-.28,1.2-.28.89.09,1.21.28.59.42.79.71.37.6.5.93.31.78.52,1.33l4.49,11.09c.35.84.53,1.46.53,1.84s-.17.76-.5,1.1-.73.5-1.2.5c-.27,0-.51-.05-.7-.15s-.36-.23-.49-.4-.28-.43-.43-.77-.28-.65-.39-.92ZM177.69,26.08h5.13l-2.59-7.09-2.54,7.09Z"/>
      <path class="cls-1" d="M193.01,15.61h4.54c1.18,0,2.19.11,3.04.33s1.61.63,2.3,1.23c1.79,1.53,2.68,3.86,2.68,6.98,0,1.03-.09,1.97-.27,2.82s-.46,1.62-.83,2.3-.86,1.29-1.44,1.83c-.46.41-.96.75-1.51,1s-1.13.43-1.76.53-1.34.15-2.13.15h-4.54c-.63,0-1.11-.1-1.43-.29s-.53-.46-.63-.81-.15-.8-.15-1.35v-12.6c0-.75.17-1.29.5-1.63s.88-.5,1.63-.5ZM194.36,18.37v11.66h2.64c.58,0,1.03-.02,1.36-.05s.67-.11,1.02-.23.66-.3.91-.53c1.16-.98,1.75-2.68,1.75-5.09,0-1.7-.26-2.96-.77-3.81s-1.14-1.38-1.89-1.61-1.66-.35-2.72-.35h-2.3Z"/>
      <path class="cls-1" d="M219.94,18.29h-7.84v4.22h7.22c.53,0,.93.12,1.19.36s.39.55.39.94-.13.71-.39.96-.66.37-1.2.37h-7.22v4.89h8.11c.55,0,.96.13,1.24.38s.42.59.42,1.01-.14.74-.42.99-.69.38-1.24.38h-9.46c-.76,0-1.3-.17-1.63-.5s-.5-.88-.5-1.63v-12.91c0-.5.07-.91.22-1.22s.38-.55.7-.69.72-.22,1.21-.22h9.19c.55,0,.97.12,1.24.37s.4.57.4.97-.13.73-.4.98-.68.37-1.24.37Z"/>
    </g>
  </g>
</svg>